<!-- Generator: Adobe Illustrator 19.0.0, SVG Export Plug-In  -->
<svg version="1.1"
	 xmlns="http://www.w3.org/2000/svg" xmlns:xlink="http://www.w3.org/1999/xlink" xmlns:a="http://ns.adobe.com/AdobeSVGViewerExtensions/3.0/"
	 x="0px" y="0px" width="486.5px" height="131.6px" viewBox="0 0 486.5 131.6" enable-background="new 0 0 486.5 131.6"
	 xml:space="preserve">
<defs>
</defs>
<g id="XMLID_15_">
	<g id="XMLID_17_">
		<path id="XMLID_28_" fill="#EEEEEE" d="M74.7,94.5c0,5.8-1,11-2.9,15.5c-1.9,4.5-4.6,8.4-8,11.6c-3.4,3.2-7.4,5.7-11.9,7.4
			c-4.5,1.7-9.4,2.5-14.6,2.5c-5.1,0-9.9-0.8-14.5-2.5c-4.5-1.7-8.5-4.2-11.9-7.4c-3.4-3.2-6.1-7.1-8-11.6C1,105.5,0,100.4,0,94.5
			V37.1c0-5.8,1-11,2.9-15.5c1.9-4.5,4.6-8.4,8-11.6c3.4-3.2,7.4-5.7,11.9-7.4C27.4,0.8,32.2,0,37.3,0c5.2,0,10.1,0.8,14.6,2.5
			c4.5,1.7,8.5,4.2,11.9,7.4c3.4,3.2,6.1,7.1,8,11.6c1.9,4.5,2.9,9.7,2.9,15.5V94.5z M56.2,37.6c0-6.2-1.7-11.2-5-15.2
			c-3.3-3.9-8-5.9-13.9-5.9c-5.8,0-10.4,2-13.7,5.9c-3.3,3.9-5,9-5,15.2V94c0,6.2,1.7,11.2,5,15.2c3.3,3.9,7.9,5.9,13.7,5.9
			c5.9,0,10.6-2,13.9-5.9c3.3-3.9,5-9,5-15.2V37.6z"/>
		<path id="XMLID_26_" fill="#EEEEEE" d="M108.9,88.7V71.5H162v17.3H108.9z"/>
		<path id="XMLID_24_" fill="#F7B52C" d="M231.1,130.5V21.3l-25.3,22.2V22.9l25.3-21.8h18.5v129.5H231.1z"/>
		<path id="XMLID_21_" fill="#F7B52C" d="M378.7,94.5c0,5.8-1,11-2.9,15.5c-1.9,4.5-4.6,8.4-8,11.6c-3.4,3.2-7.4,5.7-11.9,7.4
			c-4.5,1.7-9.4,2.5-14.6,2.5c-5.1,0-9.9-0.8-14.5-2.5c-4.5-1.7-8.5-4.2-11.9-7.4c-3.4-3.2-6.1-7.1-8-11.6
			c-1.9-4.5-2.9-9.7-2.9-15.5V37.1c0-5.8,1-11,2.9-15.5c1.9-4.5,4.6-8.4,8-11.6c3.4-3.2,7.4-5.7,11.9-7.4c4.5-1.7,9.4-2.5,14.5-2.5
			c5.2,0,10.1,0.8,14.6,2.5c4.5,1.7,8.5,4.2,11.9,7.4c3.4,3.2,6.1,7.1,8,11.6c1.9,4.5,2.9,9.7,2.9,15.5V94.5z M360.2,37.6
			c0-6.2-1.7-11.2-5-15.2c-3.3-3.9-8-5.9-13.9-5.9c-5.8,0-10.4,2-13.7,5.9c-3.3,3.9-5,9-5,15.2V94c0,6.2,1.7,11.2,5,15.2
			c3.3,3.9,7.9,5.9,13.7,5.9c5.9,0,10.6-2,13.9-5.9c3.3-3.9,5-9,5-15.2V37.6z"/>
		<path id="XMLID_18_" fill="#F7B52C" d="M486.5,94.5c0,5.8-1,11-2.9,15.5c-1.9,4.5-4.6,8.4-8,11.6c-3.4,3.2-7.4,5.7-11.9,7.4
			c-4.5,1.7-9.4,2.5-14.6,2.5c-5.1,0-9.9-0.8-14.5-2.5c-4.5-1.7-8.5-4.2-11.9-7.4c-3.4-3.2-6.1-7.1-8-11.6
			c-1.9-4.5-2.9-9.7-2.9-15.5V37.1c0-5.8,1-11,2.9-15.5c1.9-4.5,4.6-8.4,8-11.6c3.4-3.2,7.4-5.7,11.9-7.4C439.2,0.8,444,0,449.1,0
			c5.2,0,10.1,0.8,14.6,2.5c4.5,1.7,8.5,4.2,11.9,7.4c3.4,3.2,6.1,7.1,8,11.6c1.9,4.5,2.9,9.7,2.9,15.5V94.5z M468,37.6
			c0-6.2-1.7-11.2-5-15.2c-3.3-3.9-8-5.9-13.9-5.9c-5.8,0-10.4,2-13.7,5.9c-3.3,3.9-5,9-5,15.2V94c0,6.2,1.7,11.2,5,15.2
			c3.3,3.9,7.9,5.9,13.7,5.9c5.9,0,10.6-2,13.9-5.9c3.3-3.9,5-9,5-15.2V37.6z"/>
	</g>
</g>
</svg>
