<!-- Generator: Adobe Illustrator 19.0.0, SVG Export Plug-In  -->
<svg version="1.1"
	 xmlns="http://www.w3.org/2000/svg" xmlns:xlink="http://www.w3.org/1999/xlink" xmlns:a="http://ns.adobe.com/AdobeSVGViewerExtensions/3.0/"
	 x="0px" y="0px" width="156.5px" height="172.5px" viewBox="0 0 156.5 172.5" style="enable-background:new 0 0 156.5 172.5;"
	 xml:space="preserve">
<style type="text/css">
	.st0{fill:#FFFFFF;}
</style>
<defs>
</defs>
<g id="XMLID_15_">
	<g id="XMLID_32_">
		<g id="XMLID_34_">
			<path id="XMLID_60_" class="st0" d="M16.8,149.7L0,132.9l6.1-6.1c1.1-1.1,2.1-1.9,3.1-2.3c1-0.5,1.9-0.7,2.7-0.7
				c0.8,0,1.6,0.2,2.4,0.6c0.7,0.4,1.4,0.9,2,1.5c0.9,0.9,1.5,1.9,1.7,2.9c0.2,1,0.2,2,0,2.9c-0.3,1-0.7,1.9-1.3,2.8
				s-1.3,1.8-2.1,2.5l-3.6,3.6l7.4,7.4L16.8,149.7z M13.3,135.7c0.7-0.7,1.4-1.5,1.9-2.1c0.5-0.7,0.8-1.4,1-2c0.2-0.7,0.1-1.3-0.1-2
				s-0.7-1.4-1.4-2.1c-1.1-1.1-2.2-1.5-3.4-1.4s-2.6,1-4.1,2.5l-4.1,4.1l6.7,6.7L13.3,135.7z"/>
			<path id="XMLID_58_" class="st0" d="M32.4,134.1l-1.4,1.4l-12.1-12.1l1.4-1.4l2.3,2.3l0,0c-0.6-1.4-0.7-2.5-0.5-3.5
				c0.2-1,0.9-2,1.9-3l1.5,1.5c-0.8,0.8-1.3,1.6-1.6,2.3c-0.2,0.8-0.3,1.5-0.2,2.3c0.1,0.8,0.5,1.5,1,2.2c0.5,0.7,1.1,1.4,1.8,2.1
				L32.4,134.1z"/>
			<path id="XMLID_55_" class="st0" d="M43.8,123.4c-0.8,0.8-1.7,1.4-2.6,1.8c-0.9,0.4-1.9,0.6-3,0.6c-1,0-2.1-0.3-3.2-0.8
				c-1.1-0.5-2.2-1.3-3.2-2.3c-0.9-0.9-1.6-1.8-2.1-2.8s-0.9-2-1-3.1c-0.1-1,0-2.1,0.4-3.1c0.4-1,1-2,1.9-3c0.9-0.9,1.9-1.6,3-2
				c1-0.4,2.1-0.5,3.1-0.4c1,0.1,2.1,0.4,3.1,1c1,0.6,1.9,1.3,2.8,2.2c1,1,1.7,2,2.2,3c0.5,1,0.8,2.1,0.9,3.1c0.1,1-0.1,2.1-0.5,3.1
				C45.3,121.6,44.7,122.5,43.8,123.4z M41.6,112.9c-0.7-0.7-1.5-1.3-2.2-1.8s-1.6-0.8-2.3-0.9c-0.8-0.1-1.6-0.1-2.3,0.2
				c-0.8,0.2-1.5,0.7-2.3,1.5c-0.7,0.7-1.2,1.5-1.4,2.3c-0.2,0.8-0.3,1.6-0.1,2.4c0.1,0.8,0.5,1.6,0.9,2.4c0.5,0.8,1,1.5,1.7,2.1
				c0.7,0.7,1.5,1.3,2.3,1.8c0.8,0.5,1.6,0.7,2.4,0.8c0.8,0.1,1.6,0,2.3-0.2c0.8-0.3,1.5-0.7,2.1-1.4c0.7-0.7,1.2-1.5,1.4-2.3
				c0.2-0.8,0.3-1.6,0.1-2.4c-0.2-0.8-0.5-1.6-0.9-2.4C42.8,114.2,42.2,113.5,41.6,112.9z"/>
			<path id="XMLID_52_" class="st0" d="M48.9,93.4l1.4-1.4L61.2,103c0.8,0.8,1.5,1.7,2.1,2.6c0.6,0.9,0.9,1.8,1.1,2.8
				c0.1,1,0,2-0.4,3.1c-0.4,1.1-1.2,2.2-2.3,3.3c-0.9,0.9-1.8,1.5-2.6,1.9c-0.9,0.4-1.7,0.6-2.4,0.7c-0.7,0.1-1.4,0-2.1-0.2
				c-0.6-0.2-1.1-0.5-1.5-0.8l1.5-1.5c0.6,0.3,1.1,0.5,1.6,0.6s1,0,1.5-0.2c0.5-0.2,0.9-0.4,1.4-0.7c0.5-0.3,0.9-0.7,1.3-1.1
				c0.9-0.9,1.5-1.9,1.8-2.8c0.2-0.9,0.3-1.8,0-2.6c-0.2-0.8-0.6-1.6-1.2-2.4c-0.6-0.8-1.2-1.5-1.9-2.2c0.3,1.2,0.2,2.4-0.2,3.5
				c-0.4,1.2-1,2.2-1.9,3c-0.9,0.9-1.9,1.5-2.9,1.9c-1,0.3-2.1,0.4-3.1,0.3c-1-0.1-2-0.5-3-1c-1-0.6-1.9-1.3-2.8-2.1
				c-0.9-0.9-1.6-1.8-2.2-2.8c-0.6-1-0.9-2-1-3c-0.1-1,0-2,0.3-3c0.4-1,1-2,2-3c0.4-0.4,0.8-0.7,1.4-1c0.5-0.3,1.1-0.5,1.6-0.7
				c0.6-0.2,1.2-0.3,1.8-0.3c0.6,0,1.2,0.1,1.8,0.3l0,0L48.9,93.4z M55,99.5c-0.7-0.7-1.5-1.3-2.3-1.8s-1.6-0.7-2.4-0.9
				c-0.8-0.1-1.6-0.1-2.4,0.2c-0.8,0.2-1.5,0.7-2.1,1.4c-0.6,0.6-1,1.2-1.3,1.9c-0.3,0.7-0.4,1.5-0.4,2.2c0,0.8,0.2,1.6,0.6,2.4
				c0.4,0.8,0.9,1.6,1.7,2.3c0.7,0.8,1.5,1.4,2.3,1.9s1.6,0.8,2.5,1c0.8,0.2,1.7,0.1,2.5-0.1c0.8-0.2,1.6-0.7,2.3-1.5
				c0.6-0.6,1.1-1.3,1.3-2.1c0.2-0.8,0.3-1.6,0.2-2.4c-0.1-0.8-0.4-1.6-0.8-2.4C56.2,101,55.7,100.2,55,99.5z"/>
			<path id="XMLID_50_" class="st0" d="M67.4,99.1l-1.4,1.4L53.9,88.4l1.4-1.4l2.3,2.3l0,0c-0.6-1.4-0.7-2.5-0.5-3.5
				c0.2-1,0.9-2,1.9-3l1.5,1.5c-0.8,0.8-1.3,1.6-1.6,2.3c-0.2,0.8-0.3,1.5-0.2,2.3c0.1,0.8,0.5,1.5,1,2.2c0.5,0.7,1.1,1.4,1.8,2.1
				L67.4,99.1z"/>
			<path id="XMLID_47_" class="st0" d="M72.2,80.2c0.2-0.3,0.5-0.7,0.8-1.1c0.3-0.4,0.5-0.8,0.6-1.2c0.1-0.3,0.1-0.7-0.1-1
				s-0.4-0.6-0.6-0.8c-0.7-0.7-1.5-1.1-2.5-1.1c-0.9,0-1.9,0.5-3,1.6c-0.5,0.5-0.9,1-1.2,1.5c-0.3,0.5-0.5,1-0.6,1.5
				c-0.1,0.5-0.1,1,0.1,1.6c0.2,0.5,0.5,1.1,0.9,1.7l-1.4,1.4c-0.7-0.8-1.1-1.5-1.3-2.3c-0.2-0.8-0.3-1.6-0.2-2.3
				c0.1-0.8,0.4-1.5,0.8-2.2c0.4-0.7,1-1.4,1.6-2.1c0.6-0.6,1.2-1.1,1.9-1.5c0.7-0.4,1.3-0.7,2-0.8s1.4,0,2.1,0.2
				c0.7,0.3,1.4,0.7,2.1,1.4l6.6,6.6c0.5,0.5,1,0.8,1.3,0.7c0.3,0,0.7-0.5,1.1-1.3l1.1,1.1c-0.1,0.1-0.2,0.3-0.3,0.6
				c-0.1,0.3-0.3,0.5-0.5,0.7c-0.2,0.2-0.5,0.4-0.7,0.6c-0.3,0.2-0.5,0.3-0.8,0.3c-0.3,0-0.5,0-0.8-0.1c-0.2-0.1-0.5-0.2-0.7-0.4
				c-0.2-0.2-0.4-0.4-0.7-0.6c0.1,1.2-0.1,2.4-0.5,3.5c-0.4,1.1-1.1,2.1-2,3c-0.5,0.5-1.1,1-1.7,1.3c-0.6,0.4-1.3,0.6-1.9,0.6
				c-0.7,0.1-1.3,0-2-0.2s-1.3-0.6-1.9-1.2c-2.1-2.1-1.9-4.7,0.6-7.9L72.2,80.2z M75.3,78.6c-0.3,0.8-0.8,1.6-1.3,2.3
				c-0.5,0.7-1.1,1.4-1.6,2c-1,1.2-1.6,2.2-1.8,3.2c-0.2,1,0.1,1.9,0.9,2.7c0.4,0.4,0.8,0.6,1.2,0.7c0.4,0.1,0.8,0.2,1.3,0.1
				c0.4-0.1,0.8-0.2,1.2-0.4c0.4-0.2,0.8-0.5,1.1-0.8c0.6-0.6,1-1.2,1.4-1.8c0.4-0.7,0.6-1.4,0.8-2.1c0.1-0.7,0.1-1.4-0.1-2.1
				c-0.2-0.7-0.6-1.3-1.2-1.9L75.3,78.6z"/>
			<path id="XMLID_45_" class="st0" d="M87.9,78.6L86.5,80L74.4,68l1.4-1.4l1.8,1.8l0,0c-0.3-1.1-0.4-2.1-0.1-3.1
				c0.3-1,0.9-1.9,1.6-2.7c0.6-0.6,1.1-1,1.6-1.2c0.5-0.3,1-0.4,1.5-0.5c0.5-0.1,1,0,1.4,0.1c0.5,0.1,0.9,0.3,1.4,0.5
				c-0.4-1.2-0.4-2.3-0.1-3.4s0.9-2,1.8-2.9c0.8-0.8,1.6-1.3,2.4-1.6s1.5-0.2,2.2-0.1c0.7,0.2,1.4,0.5,2.1,1c0.7,0.5,1.3,1,1.9,1.6
				l7.6,7.6l-1.4,1.4l-8.4-8.4c-0.9-0.9-1.7-1.4-2.6-1.5c-0.9-0.1-1.8,0.3-2.8,1.3c-0.5,0.5-0.9,1.1-1.1,1.8
				c-0.2,0.7-0.3,1.5-0.2,2.3c0,0.4,0.2,0.7,0.3,1.1c0.2,0.4,0.4,0.7,0.6,1.1c0.2,0.4,0.5,0.7,0.8,1c0.3,0.3,0.5,0.6,0.8,0.9
				l6.5,6.5L94,72.5l-8.4-8.4c-0.9-0.9-1.7-1.4-2.6-1.5c-0.9-0.1-1.8,0.3-2.8,1.3c-0.5,0.5-0.9,1.1-1.1,1.8
				c-0.2,0.7-0.3,1.5-0.2,2.3c0,0.4,0.2,0.7,0.3,1.1c0.2,0.4,0.4,0.7,0.6,1.1c0.2,0.4,0.5,0.7,0.8,1c0.3,0.3,0.5,0.6,0.8,0.9
				L87.9,78.6z"/>
			<path id="XMLID_43_" class="st0" d="M107.3,59.2l-1.4,1.4L93.8,48.5l1.4-1.4l1.8,1.8l0,0c-0.3-1.1-0.4-2.1-0.1-3.1
				c0.3-1,0.9-1.9,1.6-2.7c0.6-0.6,1.1-1,1.6-1.2c0.5-0.3,1-0.4,1.5-0.5c0.5-0.1,1,0,1.4,0.1c0.5,0.1,0.9,0.3,1.4,0.5
				c-0.4-1.2-0.4-2.3-0.1-3.4s0.9-2,1.8-2.9c0.8-0.8,1.6-1.3,2.4-1.6s1.5-0.2,2.2-0.1c0.7,0.2,1.4,0.5,2.1,1s1.3,1,1.9,1.6l7.6,7.6
				l-1.4,1.4l-8.4-8.4c-0.9-0.9-1.7-1.4-2.6-1.5c-0.9-0.1-1.8,0.3-2.8,1.3c-0.5,0.5-0.9,1.1-1.1,1.8c-0.2,0.7-0.3,1.5-0.2,2.3
				c0,0.4,0.2,0.7,0.3,1.1c0.2,0.4,0.4,0.7,0.6,1.1c0.2,0.4,0.5,0.7,0.8,1c0.3,0.3,0.5,0.6,0.8,0.9l6.5,6.5l-1.4,1.4l-8.4-8.4
				c-0.9-0.9-1.7-1.4-2.6-1.5c-0.9-0.1-1.8,0.3-2.8,1.3c-0.5,0.5-0.9,1.1-1.1,1.8c-0.2,0.7-0.3,1.5-0.2,2.3c0,0.4,0.2,0.7,0.3,1.1
				c0.2,0.4,0.4,0.7,0.6,1.1c0.2,0.4,0.5,0.7,0.8,1c0.3,0.3,0.5,0.6,0.8,0.9L107.3,59.2z"/>
			<path id="XMLID_40_" class="st0" d="M111,26.1l-2.1-2.1l1.5-1.5l2.1,2.1L111,26.1z M125.8,40.8l-12.1-12.1l1.4-1.4l12.1,12.1
				L125.8,40.8z"/>
			<path id="XMLID_38_" class="st0" d="M132.1,34.4l-1.4,1.4l-12.1-12.1l1.4-1.4l1.7,1.7c0-1.2,0.1-2.2,0.3-3.2
				c0.2-1,0.8-1.9,1.6-2.7c0.7-0.7,1.6-1.3,2.5-1.7c0.9-0.4,1.9-0.5,3-0.3c0.7,0.1,1.4,0.4,1.9,0.8s1,0.9,1.5,1.4l7.9,7.9l-1.4,1.4
				l-7.9-7.9c-1.1-1.1-2.1-1.7-3.2-1.7c-1-0.1-2.1,0.5-3.2,1.6c-0.4,0.4-0.8,0.9-1,1.4c-0.2,0.5-0.4,1-0.4,1.5c-0.1,0.5-0.1,1,0,1.5
				s0.2,0.9,0.4,1.4c0.2,0.5,0.5,1,0.9,1.4c0.3,0.4,0.7,0.8,1.1,1.2L132.1,34.4z"/>
			<path id="XMLID_35_" class="st0" d="M140.9,1.4l1.4-1.4l10.9,10.9c0.8,0.8,1.5,1.7,2.1,2.6c0.6,0.9,0.9,1.8,1.1,2.8
				c0.1,1,0,2-0.4,3.1c-0.4,1.1-1.2,2.2-2.3,3.3c-0.9,0.9-1.8,1.5-2.6,1.9s-1.7,0.6-2.4,0.7c-0.7,0.1-1.4,0-2.1-0.2
				c-0.6-0.2-1.1-0.5-1.5-0.8l1.5-1.5c0.6,0.3,1.1,0.5,1.6,0.6s1,0,1.5-0.2c0.5-0.2,0.9-0.4,1.4-0.7c0.5-0.3,0.9-0.7,1.3-1.1
				c0.9-0.9,1.5-1.9,1.8-2.8c0.2-0.9,0.3-1.8,0-2.6c-0.2-0.8-0.6-1.6-1.2-2.4c-0.6-0.8-1.2-1.5-1.9-2.2c0.3,1.2,0.2,2.4-0.2,3.5
				s-1,2.2-1.9,3c-0.9,0.9-1.9,1.5-2.9,1.9c-1,0.3-2.1,0.4-3.1,0.3c-1-0.1-2-0.5-3-1.1c-1-0.6-1.9-1.3-2.8-2.1
				c-0.9-0.9-1.6-1.8-2.2-2.8c-0.6-1-0.9-2-1.1-3c-0.1-1,0-2,0.4-3c0.4-1,1-2,2-3c0.4-0.4,0.8-0.7,1.4-1c0.5-0.3,1.1-0.5,1.6-0.7
				s1.2-0.3,1.8-0.3c0.6,0,1.2,0.1,1.8,0.3l0,0L140.9,1.4z M147,7.5c-0.7-0.7-1.5-1.3-2.3-1.8s-1.6-0.7-2.4-0.9
				c-0.8-0.1-1.6-0.1-2.4,0.2c-0.8,0.2-1.5,0.7-2.1,1.4c-0.6,0.6-1,1.2-1.3,1.9c-0.3,0.7-0.4,1.5-0.4,2.2c0,0.8,0.2,1.6,0.6,2.4
				c0.4,0.8,0.9,1.6,1.7,2.3c0.7,0.8,1.5,1.4,2.3,1.9c0.8,0.5,1.6,0.8,2.5,1c0.8,0.2,1.7,0.1,2.5-0.1c0.8-0.2,1.6-0.7,2.3-1.5
				c0.6-0.6,1.1-1.3,1.3-2.1c0.2-0.8,0.3-1.6,0.2-2.4c-0.1-0.8-0.4-1.6-0.8-2.4S147.7,8.2,147,7.5z"/>
		</g>
	</g>
	<g id="XMLID_16_">
		<path id="XMLID_27_" class="st0" d="M35.4,166.6l-1.3-1.3l1.7-1.7l-1.8-1.8c-0.1,0.1-0.4,0.4-0.7,0.7c-0.3,0.4-0.6,0.7-0.7,0.9
			c-0.5-0.4-1-0.8-1.4-1.1c1.5-1.7,2.9-3.2,4.1-4.7l1.4,1c-0.5,0.6-1,1.2-1.5,1.8l1.9,1.9l1.6-1.6L40,162l-1.6,1.6l1.1,1.1v-0.1
			c0.5,0,1.1-0.1,1.9-0.2c0.6-0.1,1.1-0.1,1.4-0.2l0.4,1.8c-0.8,0-1.6,0-2.3,0.1l5.1,5.1l-1.3,1.3l-4.9-4.9c0.6,1.4,1,2.7,1.2,4
			c-0.2-0.1-0.5-0.3-1-0.5c-0.4-0.2-0.7-0.4-1-0.4c-0.3-1.9-1-3.9-1.9-5.7L35.4,166.6z M40.2,160.8l-3.9-3.9l6.6-6.6l3.9,3.9
			L40.2,160.8z M38.8,156.7l1.7,1.7l4-4l-1.7-1.7L38.8,156.7z M42.1,163.5l-1.1-1.1l7.5-7.5l1.1,1.1l-3.1,3.1l1.5,1.5l2.8-2.8
			l1.2,1.2l-2.8,2.8l1.5,1.5l3.5-3.5l1,1l-8.5,8.5l-1-1l3.7-3.7l-1.5-1.5L45,166l-1.2-1.2l2.8-2.8l-1.5-1.5L42.1,163.5z"/>
		<path id="XMLID_24_" class="st0" d="M57.7,159.5c-0.7,0.1-1.4,0.2-2.2,0.3c-0.3-2.1-1.9-4.5-4.9-7.3l-4.3-4.3l5.2-5.2l-1.6-0.7
			l1.4-1.9l1.9,0.9l4.7-4.7l1.2,1.2L49,147.9l3.2,3.2C55.3,154.1,57.2,156.9,57.7,159.5z M61.2,155.6c-0.5-0.3-1-0.7-1.6-1.1
			c0.1-0.1,0.4-0.4,0.7-0.7c0.5-0.4,0.8-0.7,1-0.9c0.6-0.6,0.7-1.1,0.1-1.6l-2.3-2.3l-4,4l-1.2-1.2l3.9-3.9c-0.4,0.1-1,0.2-1.8,0.4
			c-0.8,0.2-1.4,0.3-1.8,0.4l0.1-1.6c1.1-0.4,2.2-0.6,3.3-0.8l0.9-3.6l-6.4,6.4l-1.2-1.2l8.3-8.3l1.3,1.3l-1.3,5.6l4.2-4.2l1.2,1.2
			l1.3,3l-1.8,1l-1-2.6l-2.7,2.7l2.6,2.6c1.2,1.1,1.2,2.3,0,3.4C62.8,154,62.2,154.7,61.2,155.6z"/>
		<path id="XMLID_21_" class="st0" d="M60.3,135.8l-1.4-1.4l11.6-11.6l1.4,1.4l-2.3,2.3l3.5,3.5l2.9-2.9l1.4,1.4l-2.9,2.9l5.5,5.5
			l-1.5,1.5l-5.5-5.5l-3.8,3.8c2.6,2.6,3.4,5.6,2.4,9c-0.5,0-1.2-0.1-2.3-0.1c1.1-3,0.5-5.5-1.6-7.5l-3.1,3.1l-1.4-1.4l3.1-3.1
			l-3.5-3.5L60.3,135.8z M64.3,131.8l3.5,3.5l3.8-3.8l-3.5-3.5L64.3,131.8z"/>
		<path id="XMLID_17_" class="st0" d="M75.5,124.3l-1.3-1.3c-0.2-0.7-0.7-1.8-1.3-3.1l1.6-1.2c0.1,0.2,0.2,0.6,0.5,1
			c0.4,0.9,0.7,1.5,0.8,1.9l2.3-2.3c-0.7-1.2-1.4-2.4-2.1-3.4l1.6-1.4c0.1,0.2,0.4,0.5,0.6,1c0.6,1,1.1,1.8,1.4,2.3l7-7l1.3,1.3
			l-7.3,7.3c0.3,0.6,0.6,1.2,1,1.9l6.5-6.5l1.2,1.2c0.7,2.1,0.9,4.2,0.7,6.1c1.6-0.5,3.3-1.5,5.2-2.8c0.2,0.8,0.5,1.5,0.7,2.2
			c-2.3,1.3-4.4,2.3-6.3,2.8c-0.7,2-1.6,4.2-2.9,6.6c-0.1-0.1-0.4-0.1-0.6-0.2c-0.4-0.1-0.8-0.3-1.4-0.4c1.3-2,2.2-3.9,2.8-5.6
			c-1.6,0.1-3.2-0.2-4.8-0.7c0.9,2.8,1.2,5.6,1.1,8.5c-0.6-0.3-1.2-0.6-2-1c0.1-3.7-0.7-7.2-2.6-10.5L75.5,124.3z M84,113.2
			c-1.3,0-2.6,0-3.8,0.2v-1.7c0.3,0,0.8-0.1,1.5-0.2c1.1-0.1,1.8-0.2,2.2-0.3V113.2z M87.5,117.6L83,122c1.4,0.5,3,0.7,4.7,0.5
			C88.1,120.7,88,119.1,87.5,117.6z"/>
	</g>
</g>
</svg>
