<!-- Generator: Adobe Illustrator 19.0.0, SVG Export Plug-In  -->
<svg version="1.1"
	 xmlns="http://www.w3.org/2000/svg" xmlns:xlink="http://www.w3.org/1999/xlink" xmlns:a="http://ns.adobe.com/AdobeSVGViewerExtensions/3.0/"
	 x="0px" y="0px" width="105.3px" height="120.3px" viewBox="0 0 105.3 120.3" style="enable-background:new 0 0 105.3 120.3;"
	 xml:space="preserve">
<style type="text/css">
	.st0{fill:#FFFFFF;}
</style>
<defs>
</defs>
<g id="XMLID_15_">
	<g id="XMLID_36_">
		<g id="XMLID_38_">
			<path id="XMLID_57_" class="st0" d="M10.6,94.8c0.8,0.7,1.6,1.2,2.4,1.4c0.8,0.2,1.6,0.3,2.3,0.2c0.8-0.1,1.5-0.4,2.2-0.8
				c0.7-0.4,1.4-0.9,2-1.6c0.7-0.7,1.3-1.5,1.7-2.2c0.4-0.7,0.5-1.4,0.6-2.1c0-0.7-0.1-1.3-0.3-1.9c-0.3-0.6-0.6-1.1-1.1-1.6
				c-0.7-0.7-1.3-1-2-1.1c-0.7-0.1-1.4-0.1-2.1,0.2c-0.7,0.2-1.5,0.6-2.3,1c-0.8,0.5-1.6,0.9-2.3,1.4c-0.8,0.5-1.6,1-2.4,1.4
				c-0.8,0.4-1.6,0.7-2.5,0.8C5.8,90.1,5,90,4.2,89.8c-0.8-0.2-1.7-0.8-2.5-1.6c-0.6-0.6-1-1.3-1.3-2C0.1,85.4,0,84.5,0,83.6
				c0.1-0.9,0.3-1.8,0.8-2.8c0.5-1,1.2-1.9,2.1-2.8c0.9-0.9,1.9-1.6,2.9-2.1c1-0.4,1.9-0.7,2.8-0.7c0.9,0,1.8,0.2,2.6,0.5
				c0.8,0.4,1.6,0.9,2.3,1.6L12,78.9c-0.6-0.6-1.3-1.1-2-1.3c-0.7-0.2-1.4-0.3-2.1-0.2c-0.7,0.1-1.3,0.3-2,0.7
				c-0.6,0.4-1.2,0.8-1.8,1.3c-0.8,0.8-1.4,1.6-1.7,2.4c-0.3,0.8-0.5,1.5-0.4,2.2c0,0.7,0.2,1.3,0.5,1.9c0.3,0.6,0.7,1,1.2,1.4
				c0.6,0.5,1.3,0.7,2,0.7c0.7,0,1.4-0.2,2.1-0.5s1.4-0.7,2.2-1.1c0.7-0.5,1.5-0.9,2.3-1.4c0.8-0.5,1.5-0.9,2.3-1.3
				c0.8-0.4,1.6-0.6,2.4-0.7c0.8-0.1,1.6,0,2.4,0.2c0.8,0.3,1.6,0.8,2.4,1.6c1.6,1.6,2.2,3.3,2,5.2c-0.2,1.9-1.3,3.9-3.2,5.8
				c-0.9,0.9-1.8,1.6-2.8,2.1c-1,0.5-2,0.8-3,0.9c-1,0.1-2-0.1-3-0.4c-1-0.4-1.9-1-2.8-1.9L10.6,94.8z"/>
			<path id="XMLID_55_" class="st0" d="M29,86.4L12.2,69.6l1.4-1.4l6.4,6.4c0-1.2,0.1-2.2,0.3-3.2c0.2-1,0.8-1.9,1.6-2.7
				c0.7-0.7,1.6-1.3,2.5-1.7c0.9-0.4,1.9-0.5,3-0.3c0.7,0.1,1.4,0.4,1.9,0.8c0.5,0.4,1,0.9,1.5,1.4l7.9,7.9l-1.4,1.4l-7.9-7.9
				c-1.1-1.1-2.1-1.7-3.2-1.7S24,69,22.9,70.2c-0.4,0.4-0.8,0.9-1,1.4c-0.2,0.5-0.4,1-0.4,1.5c-0.1,0.5-0.1,1,0,1.5
				c0.1,0.5,0.2,0.9,0.4,1.4c0.2,0.5,0.5,1,0.9,1.4c0.3,0.4,0.7,0.8,1.1,1.2l6.5,6.5L29,86.4z"/>
			<path id="XMLID_52_" class="st0" d="M47.1,68.9c-0.8,0.8-1.7,1.4-2.6,1.8c-0.9,0.4-1.9,0.6-3,0.6c-1,0-2.1-0.3-3.2-0.8
				c-1.1-0.5-2.2-1.3-3.2-2.3c-0.9-0.9-1.6-1.8-2.1-2.8c-0.5-1-0.9-2-1-3.1c-0.1-1,0-2.1,0.4-3.1c0.4-1,1-2,1.9-3
				c0.9-0.9,1.9-1.6,3-2c1-0.4,2.1-0.5,3.1-0.4s2.1,0.4,3.1,1c1,0.6,1.9,1.3,2.8,2.2c1,1,1.7,2,2.2,3c0.5,1,0.8,2.1,0.9,3.1
				c0.1,1.1-0.1,2.1-0.5,3.1C48.5,67.2,47.9,68.1,47.1,68.9z M44.8,58.5c-0.7-0.7-1.5-1.3-2.2-1.8c-0.8-0.5-1.6-0.8-2.3-0.9
				c-0.8-0.1-1.6-0.1-2.3,0.2c-0.8,0.2-1.5,0.7-2.3,1.5c-0.7,0.7-1.2,1.5-1.4,2.3c-0.2,0.8-0.3,1.6-0.1,2.4c0.1,0.8,0.5,1.6,0.9,2.4
				c0.5,0.8,1,1.5,1.7,2.1c0.7,0.7,1.5,1.3,2.3,1.8c0.8,0.5,1.6,0.7,2.4,0.8c0.8,0.1,1.6,0,2.3-0.2c0.8-0.3,1.5-0.7,2.1-1.4
				c0.7-0.7,1.2-1.5,1.4-2.3c0.2-0.8,0.3-1.6,0.1-2.4c-0.2-0.8-0.5-1.6-0.9-2.4C46,59.8,45.5,59.1,44.8,58.5z"/>
			<path id="XMLID_49_" class="st0" d="M60.1,56c-0.8,0.8-1.7,1.4-2.6,1.8s-1.9,0.6-3,0.6c-1,0-2.1-0.3-3.2-0.8
				c-1.1-0.5-2.2-1.3-3.2-2.3c-0.9-0.9-1.6-1.8-2.1-2.8c-0.5-1-0.9-2-1-3.1c-0.1-1,0-2.1,0.4-3.1c0.4-1,1-2,1.9-3
				c0.9-0.9,1.9-1.6,3-2c1-0.4,2.1-0.5,3.1-0.4s2.1,0.4,3.1,1c1,0.6,1.9,1.3,2.8,2.2c1,1,1.7,2,2.2,3c0.5,1,0.8,2.1,0.9,3.1
				c0.1,1.1-0.1,2.1-0.5,3.1C61.5,54.2,60.9,55.1,60.1,56z M57.8,45.5c-0.7-0.7-1.5-1.3-2.2-1.8c-0.8-0.5-1.6-0.8-2.3-0.9
				c-0.8-0.1-1.6-0.1-2.3,0.2c-0.8,0.2-1.5,0.7-2.3,1.5c-0.7,0.7-1.2,1.5-1.4,2.3c-0.2,0.8-0.3,1.6-0.1,2.4c0.1,0.8,0.5,1.6,0.9,2.4
				c0.5,0.8,1,1.5,1.7,2.1c0.7,0.7,1.5,1.3,2.3,1.8c0.8,0.5,1.6,0.7,2.4,0.8c0.8,0.1,1.6,0,2.3-0.2c0.8-0.3,1.5-0.7,2.1-1.4
				c0.7-0.7,1.2-1.5,1.4-2.3c0.2-0.8,0.3-1.6,0.1-2.4c-0.2-0.8-0.5-1.6-0.9-2.4C59,46.8,58.5,46.1,57.8,45.5z"/>
			<path id="XMLID_47_" class="st0" d="M72.2,43.3c-0.1,0.2-0.3,0.5-0.5,0.8c-0.2,0.4-0.5,0.7-0.8,1.1c-0.7,0.7-1.4,1.1-2.1,1.1
				c-0.7,0-1.5-0.4-2.4-1.3l-8.8-8.8l-1.7,1.7l-1.2-1.2l1.7-1.7l-3.4-3.4l1.4-1.4l3.4,3.4l2.3-2.3l1.2,1.2l-2.3,2.3l8.3,8.3
				c0.3,0.3,0.6,0.5,0.8,0.7c0.2,0.2,0.5,0.3,0.7,0.4c0.2,0.1,0.4,0,0.7-0.1c0.2-0.1,0.5-0.3,0.8-0.6c0.2-0.2,0.4-0.4,0.5-0.6
				c0.2-0.2,0.3-0.5,0.5-0.7L72.2,43.3z"/>
			<path id="XMLID_44_" class="st0" d="M59.8,26.1L57.7,24l1.5-1.5l2.1,2.1L59.8,26.1z M74.6,40.8L62.5,28.7l1.4-1.4L76,39.4
				L74.6,40.8z"/>
			<path id="XMLID_42_" class="st0" d="M81,34.4l-1.4,1.4L67.5,23.7l1.4-1.4l1.7,1.7c0-1.2,0.1-2.2,0.3-3.2c0.2-1,0.8-1.9,1.6-2.7
				c0.7-0.7,1.6-1.3,2.5-1.7c0.9-0.4,1.9-0.5,3-0.3c0.7,0.1,1.4,0.4,1.9,0.8c0.5,0.4,1,0.9,1.5,1.4l7.9,7.9l-1.4,1.4l-7.9-7.9
				c-1.1-1.1-2.1-1.7-3.2-1.7s-2.1,0.5-3.2,1.6c-0.4,0.4-0.8,0.9-1,1.4c-0.2,0.5-0.4,1-0.4,1.5c-0.1,0.5-0.1,1,0,1.5
				c0.1,0.5,0.2,0.9,0.4,1.4c0.2,0.5,0.5,1,0.9,1.4c0.3,0.4,0.7,0.8,1.1,1.2L81,34.4z"/>
			<path id="XMLID_39_" class="st0" d="M89.8,1.4L91.2,0l10.9,10.9c0.8,0.8,1.5,1.7,2.1,2.6c0.6,0.9,0.9,1.8,1.1,2.8
				c0.1,1,0,2-0.4,3.1c-0.4,1.1-1.2,2.2-2.3,3.3c-0.9,0.9-1.8,1.5-2.6,1.9c-0.9,0.4-1.7,0.6-2.4,0.7c-0.7,0.1-1.4,0-2.1-0.2
				c-0.6-0.2-1.1-0.5-1.5-0.8l1.5-1.5c0.6,0.3,1.1,0.5,1.6,0.6s1,0,1.5-0.2c0.5-0.2,0.9-0.4,1.4-0.7c0.5-0.3,0.9-0.7,1.3-1.1
				c0.9-0.9,1.5-1.9,1.8-2.8c0.2-0.9,0.3-1.8,0-2.6c-0.2-0.8-0.6-1.6-1.2-2.4s-1.2-1.5-1.9-2.2c0.3,1.2,0.2,2.4-0.2,3.5
				c-0.4,1.2-1,2.2-1.9,3C97,19,96,19.7,95,20c-1,0.3-2.1,0.4-3.1,0.3c-1-0.1-2-0.5-3-1.1c-1-0.6-1.9-1.3-2.8-2.1
				c-0.9-0.9-1.6-1.8-2.2-2.8c-0.6-1-0.9-2-1.1-3c-0.1-1,0-2,0.4-3c0.4-1,1-2,2-3c0.4-0.4,0.8-0.7,1.4-1c0.5-0.3,1.1-0.5,1.6-0.7
				c0.6-0.2,1.2-0.3,1.8-0.3c0.6,0,1.2,0.1,1.8,0.3l0,0L89.8,1.4z M95.9,7.5c-0.7-0.7-1.5-1.3-2.3-1.8C92.8,5.3,92,5,91.2,4.9
				c-0.8-0.1-1.6-0.1-2.4,0.2c-0.8,0.2-1.5,0.7-2.1,1.4c-0.6,0.6-1,1.2-1.3,1.9s-0.4,1.5-0.4,2.2c0,0.8,0.2,1.6,0.6,2.4
				c0.4,0.8,0.9,1.6,1.7,2.3c0.7,0.8,1.5,1.4,2.3,1.9c0.8,0.5,1.6,0.8,2.5,1s1.7,0.1,2.5-0.1c0.8-0.2,1.6-0.7,2.3-1.5
				c0.6-0.6,1.1-1.3,1.3-2.1c0.2-0.8,0.3-1.6,0.2-2.4c-0.1-0.8-0.4-1.6-0.8-2.4C97.1,8.9,96.6,8.2,95.9,7.5z"/>
		</g>
	</g>
	<g id="XMLID_16_">
		<path id="XMLID_34_" class="st0" d="M31.8,114.4l-1.3-1.3l3.7-3.7c-0.3-0.9-0.6-1.6-1-2.2l1.8-1.6l0.9,2.1l6-6l1.3,1.3l-6.6,6.6
			c0.2,0.7,0.5,1.4,0.8,2.1l8-8l1.2,1.2l-8.6,8.6c0.1,0.3,0.2,0.7,0.3,1.2c0.1,0.4,0.2,0.7,0.3,1l8-8l1.4,1.4l-0.9,5.8l2.8-1.4
			l0.6,2.2c-3.9,1.6-7.4,3.1-10.7,4.6l-0.5-1.9c0.6-0.3,1.6-0.8,2.9-1.3c1.1-0.6,2-1,2.7-1.3l0.9-5l-7.7,7.7l-1.2-1.2
			c-0.1-0.2-0.2-0.6-0.3-1.2c-0.1-0.4-0.2-0.7-0.3-1l-2.7,2.7l-1.2-1.2l3.2-3.2c-0.3-0.7-0.5-1.4-0.8-2.1L31.8,114.4z"/>
		<path id="XMLID_30_" class="st0" d="M52.7,104.9c-2.7-1.3-5.2-2.5-7.5-3.6l0.9-1.7c3.3,1.5,5.8,2.6,7.5,3.5L52.7,104.9z M54,110.7
			l-1.3-1.3l3.8-3.8L46,95l1.5-1.5L58,104l2-2L49.5,91.5l1.4-1.4l10.5,10.5l3.9-3.9l1.3,1.3L54,110.7z M60.7,96.9l-1.9,0.7
			c-0.6-1.7-1.7-4.2-3.2-7.6l1.8-0.8C58.7,92.3,59.8,94.8,60.7,96.9z"/>
		<path id="XMLID_25_" class="st0" d="M59.2,88.8l-1.3-1.3l1.6-1.6l-2.3-2.3l1.4-1.4l2.3,2.3l1.3-1.3l1.3,1.3l-1.3,1.3l2.2,2.2
			c0.3-0.5,0.7-1.1,1-1.6c0.5,0.5,1,1,1.4,1.4l-1,1.7l3.7,3.7c1,0.9,1,1.9,0.1,2.9c-0.3,0.4-0.7,0.8-1.2,1.3
			c-0.2-0.1-0.5-0.4-0.9-0.7c-0.3-0.2-0.5-0.3-0.7-0.5c0.4-0.3,0.7-0.6,1-0.9c0.5-0.4,0.5-0.8,0.1-1.2l-2.9-2.9l-1.1,2l-1.7-1.4
			l1.3-2.1l-2.6-2.6L59.2,88.8z M73,92.9L62.2,82.1l2.2-2.2c-0.2-0.2-0.4-0.6-0.7-1.1c-0.4-0.5-0.6-0.8-0.7-1.1l1.7-1.5
			c0.5,0.7,0.9,1.5,1.2,2.2l3.7-3.7l10.8,10.8L79,87l-1-1l-4.5,4.5l1,1L73,92.9z M64.9,81.9l3,3l4.5-4.5l-3-3L64.9,81.9z M69.2,86.2
			l3.1,3.1l4.5-4.5l-3.1-3.1L69.2,86.2z"/>
		<path id="XMLID_17_" class="st0" d="M72.9,75.2l-1.3-1.3l1.3-1.3l-2.4-2.4l1.3-1.3l2.4,2.4l1.2-1.2l1.3,1.3l-1.2,1.2l2.1,2.1
			l0.8-1.4c0.5,0.5,1,1,1.4,1.4c-0.2,0.5-0.5,1-0.7,1.5l3.7,3.7c1,0.9,1.1,1.9,0.3,2.8c-0.3,0.4-0.7,0.8-1.1,1.2
			c-0.2-0.2-0.5-0.4-1-0.8c-0.2-0.2-0.4-0.3-0.5-0.4c0.1-0.1,0.2-0.2,0.3-0.3c0.2-0.1,0.4-0.3,0.5-0.4c0.5-0.4,0.5-0.8,0.1-1.1l-3-3
			l-0.8,1.8l-1.6-1.3c0.1-0.2,0.3-0.6,0.5-1c0.2-0.4,0.4-0.7,0.5-0.9l-2.6-2.6L72.9,75.2z M74.5,69.2l-1-1l8.7-8.7l1,1l-1,1l4,4
			l1.1-1.2c0.3,0.3,0.7,0.7,1,1l-1.2,1.2l0.7,0.7l-1.3,1.3l-0.7-0.7c-2.1,2.3-4,4.5-5.9,6.5l-1.1-0.9l1-1.1l-4.3-4.3L74.5,69.2z
			 M76.8,66.9l0.9,0.9l4-4l-0.9-0.9L76.8,66.9z M78.5,68.6l0.8,0.8l4-4l-0.8-0.8L78.5,68.6z M81.1,71.2l3.9-4.2l-0.7-0.7l-4,4
			L81.1,71.2z M94.1,71.8c-1.1,0.6-2.2,0.9-3.2,1.1c-0.1,1-0.5,2.1-1.1,3.5c-0.1,0-0.4,0-0.7-0.1c-0.4-0.1-0.7-0.2-1-0.2l0.1,0.7
			c-0.2,0-0.5,0.1-0.9,0.2c-0.4,0-0.7,0.1-1,0.1c-0.1,1.1-0.4,2.3-0.9,3.6c-0.2,0-0.5-0.1-1-0.2c-0.3-0.1-0.6-0.2-0.7-0.2
			c0.5-1,0.8-2,1-2.9c-0.8,0.1-1.6,0.3-2.5,0.5l-0.1-1.5l2.6-0.5c0-0.7-0.2-1.4-0.6-2.1l-2.9,2.9l-1-1l4.1-4.1l1.1,1.1
			c0,0.1,0.1,0.2,0.2,0.4c0.4,1.1,0.6,1.9,0.7,2.5L88,75l0.1,0.9c0.6-1.1,1-2,1.2-2.8c-0.9,0-2-0.2-3.2-0.7l0.4-0.9l-0.7,0.7l-1-1
			l4.4-4.4l1.1,1.1c0.6,1.3,0.8,2.5,0.8,3.5c0.7-0.3,1.6-0.7,2.4-1.2C93.8,70.6,93.9,71.2,94.1,71.8z M89,68.8L86.9,71
			c1,0.3,1.8,0.5,2.7,0.5C89.5,70.4,89.3,69.5,89,68.8z"/>
	</g>
</g>
</svg>
