<!-- Generator: Adobe Illustrator 19.0.0, SVG Export Plug-In  -->
<svg version="1.1"
	 xmlns="http://www.w3.org/2000/svg" xmlns:xlink="http://www.w3.org/1999/xlink" xmlns:a="http://ns.adobe.com/AdobeSVGViewerExtensions/3.0/"
	 x="0px" y="0px" width="92.5px" height="68.3px" viewBox="0 0 92.5 68.3" style="enable-background:new 0 0 92.5 68.3;"
	 xml:space="preserve">
<style type="text/css">
	.st0{fill:#FFFFFF;}
</style>
<defs>
</defs>
<g id="XMLID_15_">
	<g id="XMLID_38_">
		<g id="XMLID_40_">
			<path id="XMLID_43_" class="st0" d="M13.8,20.7c-1.8-1.1-3.4-1.5-4.9-1.2c-1.5,0.3-3,1.1-4.4,2.6c-1,1-1.7,2.1-2,3.2
				s-0.4,2.3-0.2,3.4C2.5,29.9,3,31,3.6,32.1c0.7,1.1,1.5,2.2,2.5,3.2c0.9,0.9,1.9,1.8,3,2.5c1.1,0.7,2.2,1.2,3.4,1.4
				s2.3,0.2,3.5-0.1c1.2-0.3,2.4-1.1,3.5-2.2c0.7-0.7,1.3-1.5,1.6-2.3c0.4-0.8,0.6-1.7,0.6-2.5c0-0.9-0.1-1.7-0.3-2.6
				c-0.3-0.9-0.6-1.7-1.2-2.5l1.7-1.7c0.6,1,1.1,2,1.5,3.1c0.4,1.1,0.5,2.2,0.5,3.3c0,1.1-0.3,2.3-0.8,3.4c-0.5,1.2-1.3,2.3-2.5,3.4
				c-1.3,1.3-2.6,2.2-4,2.6s-2.8,0.6-4.2,0.3c-1.4-0.2-2.8-0.7-4.1-1.5c-1.3-0.8-2.6-1.8-3.8-3c-1.6-1.6-2.8-3.2-3.5-4.7
				c-0.7-1.5-1.1-3-1.1-4.4c0-1.4,0.3-2.7,0.9-4c0.6-1.3,1.5-2.5,2.6-3.6c0.9-0.9,1.8-1.5,2.7-2.1c1-0.5,2-0.8,3-0.9
				c1-0.1,2,0,3.1,0.3c1,0.3,2,0.8,3.1,1.5L13.8,20.7z"/>
			<path id="XMLID_41_" class="st0" d="M30.4,13.2l-1.4-1.4l7.2-7.2l8.7,8.7l-1.4,1.4l-2.9-2.9c0.2,0.8,0.3,1.6,0.4,2.4
				c0,0.8-0.1,1.6-0.3,2.4c-0.2,0.8-0.6,1.6-1.1,2.4c-0.5,0.8-1.2,1.6-2,2.5c-1.1,1.1-2.2,1.9-3.5,2.4c-1.3,0.5-2.6,0.8-4,0.7
				c-1.4-0.1-2.8-0.5-4.3-1.3c-1.5-0.8-3-1.9-4.5-3.4c-1.2-1.2-2.2-2.5-3-3.9c-0.8-1.4-1.2-2.8-1.3-4.2c-0.1-1.4,0.1-2.9,0.6-4.3
				c0.5-1.4,1.4-2.8,2.8-4.1c0.9-0.9,1.8-1.6,2.8-2.2c1-0.6,2-0.9,3.1-1.1c1.1-0.2,2.1-0.1,3.2,0.1s2.2,0.7,3.3,1.4l-1.6,1.6
				c-0.8-0.5-1.6-0.8-2.4-1c-0.8-0.2-1.6-0.2-2.4,0S24.8,2.7,24,3.1c-0.8,0.4-1.4,0.9-2.1,1.5c-1.1,1.1-1.9,2.2-2.3,3.4
				c-0.4,1.2-0.5,2.4-0.3,3.6c0.2,1.2,0.7,2.4,1.4,3.7c0.7,1.2,1.7,2.4,2.9,3.6c0.9,0.9,2,1.7,3.1,2.3c1.1,0.6,2.2,0.9,3.4,1
				c1.2,0.1,2.3,0,3.4-0.4c1.1-0.4,2.2-1.1,3.1-2c0.5-0.5,0.9-1,1.2-1.6c0.4-0.6,0.7-1.2,0.9-1.9c0.2-0.7,0.3-1.4,0.4-2.2
				c0-0.8-0.1-1.6-0.4-2.4c-0.3-0.8-0.6-1.5-1.1-2.2c-0.5-0.7-1-1.3-1.6-2L30.4,13.2z"/>
		</g>
	</g>
	<g id="XMLID_16_">
		<path id="XMLID_32_" class="st0" d="M40.7,68.3c-0.7,0-1.4,0-2.1,0c-0.2-2-1.6-4.2-4.2-6.6l-3.7-3.7l4.1-4.1l-2.6-2.6l1.4-1.4
			l0.8,0.8l5.3-5.3l1.1,1.1l-5.3,5.3l0.7,0.7l6.1-6.1l2,2.5c-0.5,0.3-1,0.7-1.5,1.2L42,48.9l-8.8,8.8l2.6,2.6c1.7,1.7,2.8,3,3.4,4
			C39.8,65.4,40.4,66.7,40.7,68.3z M35.9,59.3l-1-0.8l2.3-2.6l-0.8-0.8l1.3-1.3l0.7,0.7l3.2-3.7l1,0.9l-3.2,3.8l0.1,0.1
			c0.4,0.5,0.9,0.5,1.5-0.1l2.4-2.4c0.5-0.5,0.5-0.9,0.3-1.3c-0.1-0.1-0.3-0.5-0.6-1c0.2-0.1,0.4-0.3,0.8-0.5
			c0.4-0.2,0.7-0.4,0.8-0.5c0.3,0.4,0.5,0.7,0.7,1.1c0.6,0.9,0.4,1.8-0.6,2.7l-3.3,3.4C40.2,58,39.2,58,38.2,57L38,56.8L35.9,59.3z
			 M41.5,63.1c-1.2-0.3-2.4-0.5-3.5-0.8l0.4-1.6c1.1,0.2,2.3,0.4,3.5,0.7L41.5,63.1z M41.6,66.5l-1.1-1.1l3-3L40.2,59l1.3-1.3
			l3.4,3.4l1.4-1.4l-3.5-3.5l1.3-1.3l3.5,3.5l3.3-3.3l1.1,1.1L41.6,66.5z M48.3,56.4l-1.8,0.3c-0.1-0.9-0.2-2-0.5-3.5l1.7-0.4
			C48,53.8,48.2,55,48.3,56.4z"/>
		<path id="XMLID_27_" class="st0" d="M44.6,46.5l-1.3-1.3l1.4-1.4l-2.4-2.4l1.3-1.3l2.4,2.4l1.2-1.2l1.3,1.3l-1.2,1.2l2.3,2.3
			l1-1.6c0.5,0.5,1,1,1.4,1.4c-0.3,0.5-0.6,1.1-1,1.6l3.5,3.5c1,1,1.1,2,0.2,3c-0.2,0.3-0.6,0.7-1.1,1.2c-0.5-0.4-1-0.8-1.6-1.2
			c0.2-0.2,0.5-0.5,0.8-0.8c0.5-0.5,0.6-0.9,0.1-1.3l-2.8-2.8c-0.1,0.2-0.3,0.4-0.5,0.8c-0.2,0.5-0.5,0.8-0.6,1.1l-1.5-1.3l1.2-2
			L46,45.1L44.6,46.5z M57.2,49.2l-1.8-0.2c-0.1-0.8-0.5-1.4-1-1.9l-8.2-8.2l1.3-1.3l8,8c0-0.4,0.1-1,0.1-1.8c0-0.7,0.1-1.2,0.1-1.5
			c0.6,0.4,1.2,0.8,1.8,1.2c-0.1,1.4-0.2,2.9-0.3,4.3C57.3,48.3,57.2,48.8,57.2,49.2z M52.9,38.9c-1.7-0.7-3.2-1.4-4.7-1.9l0.7-1.6
			c1.6,0.5,3.2,1.1,4.8,1.7L52.9,38.9z M65.1,43.3c-0.2,0-0.6-0.1-1-0.2c-1.3-0.2-2.4-0.4-3.2-0.5c0.3,1.3,0.4,3.1,0.1,5.4
			c-0.3,0-0.7,0-1.1,0.1c-0.4,0-0.7,0-1,0c0.9-3.7,0.1-6.8-2.5-9.4c-1.2-1.5-3-3.3-5.3-5.6l1.4-1.4c2.1,2.1,3.9,4,5.4,5.7
			c1,1.1,1.8,2.2,2.3,3.2c0.4,0.1,0.9,0.1,1.6,0.2c0.8,0.1,1.9,0.3,3.3,0.4V43.3z"/>
		<path id="XMLID_25_" class="st0" d="M59.1,33.8l-1.4-1.4l1.4-1.4l-3.2-3.2l1.4-1.4l3.2,3.2l1.3-1.3l1.4,1.4L61.9,31l4.1,4.1
			l0.8-1.5l0.9,0.8c0.1-1.6-0.3-3.3-1.3-5l-1.5,1.5l-1.4-1.4l2.1-7.8l-4.5,4.5l-1.2-1.2l6.8-6.8l1.4,1.4l-2.1,7.6l5.6-5.6l5,5.4
			c1.6,1.5,1.7,2.9,0.3,4.3c-0.3,0.4-0.8,0.9-1.6,1.7c-0.2-0.1-0.5-0.4-1-0.7c-0.3-0.2-0.5-0.3-0.5-0.3c0.4-0.4,0.9-0.9,1.4-1.4
			c0.9-0.8,0.8-1.6-0.1-2.4c-0.4-0.4-1.1-1.2-2.2-2.4c-0.7-0.7-1.2-1.3-1.5-1.6l-1.2,1.2c2.5,3.4,3.5,6.8,3,10.3c-0.6,0-1.3,0-2,0
			c0.5-3.1-0.2-6.1-2.3-9l-1.3,1.3c1.6,2.6,2.2,5.3,1.8,8.2c-0.1,0-0.4,0-0.8-0.1c-0.5,0-0.8-0.1-1.1-0.1c-0.1,0.2-0.3,0.6-0.5,1.1
			c-0.3,0.6-0.7,1.6-1.4,2.9L64,39.1c0.2-0.3,0.5-0.7,0.7-1.4c0.2-0.3,0.3-0.5,0.4-0.7l-4.6-4.6L59.1,33.8z"/>
		<path id="XMLID_17_" class="st0" d="M73.6,18.9l-4-4L80,4.5l4,4L79.5,13c0.1,0,0.3,0.1,0.5,0.3c0.2,0.1,0.4,0.2,0.5,0.3L86,8.2
			l1,1L74.3,21.9l-1-1l5.7-5.7c-0.1-0.1-0.3-0.2-0.6-0.3c-0.3-0.1-0.5-0.2-0.6-0.3L73.6,18.9z M71.9,14.5l0.7,0.7l7.7-7.7l-0.7-0.7
			L71.9,14.5z M73.4,15.9l0.7,0.7L81.8,9l-0.7-0.7L73.4,15.9z M84.7,24c-0.4-0.2-0.9-0.6-1.5-1c0.5-0.5,0.9-0.9,1.2-1.2
			c0.6-0.5,0.7-1,0.3-1.3l-1.1-1.1l-4.4,4.4l-2.7-2.7l9.7-9.7l2.7,2.7L85,18l1.3,1.3c1,0.9,1,2-0.1,3.1L84.7,24z M78.8,20.6l1,1
			l6.9-6.9l-1-1L78.8,20.6z M81.1,27.6l-1.8-0.5c0.8-1.4,1.6-3.2,2.4-5.4l1.6,0.3C82.6,23.9,81.8,25.8,81.1,27.6z M92.5,15.9
			c-1.6,0.7-3.4,1.5-5.3,2.5l-0.4-1.6c0.5-0.2,1.2-0.6,2.1-1c1.4-0.7,2.4-1.2,3.1-1.6L92.5,15.9z"/>
	</g>
</g>
</svg>
