<!-- Generator: Adobe Illustrator 19.0.0, SVG Export Plug-In  -->
<svg version="1.1"
	 xmlns="http://www.w3.org/2000/svg" xmlns:xlink="http://www.w3.org/1999/xlink" xmlns:a="http://ns.adobe.com/AdobeSVGViewerExtensions/3.0/"
	 x="0px" y="0px" width="159.2px" height="170.6px" viewBox="0 0 159.2 170.6" style="enable-background:new 0 0 159.2 170.6;"
	 xml:space="preserve">
<style type="text/css">
	.st0{fill:#FFFFFF;}
</style>
<defs>
</defs>
<g id="XMLID_15_">
	<g id="XMLID_37_">
		<g id="XMLID_39_">
			<path id="XMLID_65_" class="st0" d="M0,135.6l1.7-1.7l20,9.9l-9.9-20l1.7-1.7l11,22.6l-1.8,1.8L0,135.6z"/>
			<path id="XMLID_62_" class="st0" d="M26.5,127.5l7.6,7.6l-1.6,1.6l-16.8-16.8l6.6-6.6c1.9-1.9,3.6-2.9,5.3-3.2s3.3,0.3,4.8,1.9
				c1.1,1.1,1.7,2.1,1.9,3.2s0,2.3-0.5,3.7c0.7-0.3,1.3-0.5,1.9-0.4c0.6,0,1.2,0.2,1.8,0.5c0.6,0.3,1.1,0.6,1.6,1.1
				c0.5,0.4,1,0.9,1.4,1.3c0.7,0.6,1.2,1.1,1.7,1.5c0.5,0.4,0.8,0.7,1.2,0.9s0.6,0.4,0.8,0.4c0.2,0.1,0.4,0.1,0.6,0.1l0.1,0.1
				l-1.7,1.8c-0.5-0.1-1-0.4-1.5-0.8c-0.6-0.4-1.1-0.9-1.7-1.4c-0.6-0.5-1.1-1-1.7-1.5c-0.5-0.5-1-0.9-1.4-1.1
				c-0.5-0.4-1.1-0.6-1.5-0.6s-0.9,0-1.4,0.1c-0.4,0.2-0.9,0.4-1.3,0.7c-0.4,0.3-0.8,0.7-1.2,1.1L26.5,127.5z M30.1,121.2
				c0.6-0.6,1.1-1.2,1.5-1.8c0.4-0.6,0.6-1.3,0.7-1.9c0.1-0.6,0-1.3-0.2-1.9s-0.6-1.3-1.2-1.8c-0.6-0.6-1.2-1-1.9-1.2
				s-1.3-0.2-1.9,0c-0.6,0.1-1.2,0.4-1.8,0.8c-0.6,0.4-1.1,0.9-1.7,1.4l-5,5l6.5,6.5L30.1,121.2z"/>
			<path id="XMLID_60_" class="st0" d="M50.2,109c0.8,0.7,1.6,1.2,2.4,1.4c0.8,0.2,1.6,0.3,2.3,0.2c0.8-0.1,1.5-0.4,2.2-0.8
				c0.7-0.4,1.4-0.9,2-1.6c0.7-0.7,1.3-1.5,1.7-2.2c0.4-0.7,0.5-1.4,0.6-2.1c0-0.7-0.1-1.3-0.3-1.9c-0.3-0.6-0.6-1.1-1.1-1.6
				c-0.7-0.7-1.3-1-2-1.1c-0.7-0.1-1.4-0.1-2.1,0.2s-1.5,0.6-2.3,1c-0.8,0.5-1.6,0.9-2.3,1.4c-0.8,0.5-1.6,1-2.4,1.4
				s-1.6,0.7-2.4,0.8c-0.8,0.1-1.6,0.1-2.5-0.2c-0.8-0.2-1.7-0.8-2.5-1.6c-0.6-0.6-1-1.3-1.3-2c-0.3-0.8-0.4-1.6-0.4-2.5
				c0.1-0.9,0.3-1.8,0.8-2.8c0.5-1,1.2-1.9,2.1-2.8c0.9-0.9,1.9-1.6,2.9-2.1c1-0.4,1.9-0.7,2.8-0.7s1.8,0.2,2.6,0.5
				c0.8,0.4,1.6,0.9,2.3,1.6l-1.5,1.5c-0.6-0.6-1.3-1.1-2-1.3s-1.4-0.3-2.1-0.2c-0.7,0.1-1.3,0.3-2,0.7c-0.6,0.4-1.2,0.8-1.8,1.3
				c-0.8,0.8-1.4,1.6-1.7,2.4c-0.3,0.8-0.5,1.5-0.4,2.2c0,0.7,0.2,1.3,0.5,1.9c0.3,0.6,0.7,1,1.2,1.4c0.6,0.5,1.3,0.7,2,0.7
				c0.7,0,1.4-0.2,2.1-0.5s1.4-0.7,2.2-1.1c0.7-0.5,1.5-0.9,2.3-1.4c0.8-0.5,1.5-0.9,2.3-1.3c0.8-0.4,1.6-0.6,2.4-0.7
				c0.8-0.1,1.6,0,2.4,0.2c0.8,0.3,1.6,0.8,2.4,1.6c1.6,1.6,2.2,3.3,2,5.2c-0.2,1.9-1.3,3.9-3.2,5.8c-0.9,0.9-1.8,1.6-2.8,2.1
				c-1,0.5-2,0.8-3,0.9c-1,0.1-2-0.1-3-0.4c-1-0.4-1.9-1-2.8-1.9L50.2,109z"/>
			<path id="XMLID_58_" class="st0" d="M72.9,96.4c-0.1,0.2-0.3,0.5-0.5,0.8c-0.2,0.4-0.5,0.7-0.8,1c-0.7,0.7-1.4,1.1-2.1,1.1
				c-0.7,0-1.5-0.4-2.4-1.3l-8.8-8.8l-1.7,1.7l-1.2-1.2L57,88l-3.4-3.4l1.4-1.4l3.4,3.4l2.3-2.3l1.2,1.2l-2.3,2.3l8.3,8.3
				c0.3,0.3,0.6,0.5,0.8,0.7c0.2,0.2,0.5,0.3,0.7,0.4c0.2,0.1,0.4,0,0.7-0.1c0.2-0.1,0.5-0.3,0.8-0.6c0.2-0.2,0.4-0.4,0.5-0.6
				c0.2-0.2,0.3-0.5,0.5-0.7L72.9,96.4z"/>
			<path id="XMLID_56_" class="st0" d="M76.6,92.7l-1.4,1.4L63.1,82l1.4-1.4l2.3,2.3l0,0c-0.6-1.4-0.7-2.5-0.5-3.5
				c0.2-1,0.9-2,1.9-3l1.5,1.5c-0.8,0.8-1.3,1.6-1.6,2.3c-0.2,0.8-0.3,1.5-0.2,2.3c0.1,0.8,0.5,1.5,1,2.2s1.1,1.4,1.8,2.1L76.6,92.7
				z"/>
			<path id="XMLID_53_" class="st0" d="M78,79.8c0.7,0.7,1.4,1.2,2.1,1.6c0.8,0.4,1.5,0.7,2.3,0.8c0.8,0.1,1.5,0,2.3-0.2
				c0.8-0.3,1.5-0.7,2.2-1.4c0.9-0.9,1.5-1.9,1.6-3.1c0.2-1.1-0.1-2.3-0.7-3.4l1.6-1.6c0.4,0.7,0.7,1.5,0.9,2.3
				c0.2,0.8,0.3,1.5,0.2,2.3c-0.1,0.8-0.3,1.6-0.6,2.3c-0.4,0.8-0.9,1.5-1.7,2.3c-1,1-2,1.6-3,2c-1,0.4-2,0.5-3.1,0.4
				c-1-0.1-2-0.5-3-1c-1-0.6-1.9-1.3-2.8-2.2c-0.9-0.9-1.6-1.8-2.1-2.9c-0.5-1-0.8-2.1-0.9-3.1s0-2.1,0.4-3.1s1-2,1.8-2.8
				c1.7-1.7,3.5-2.4,5.6-2.2c2.1,0.2,4.2,1.4,6.4,3.6L78,79.8z M84.8,70.7c-0.6-0.6-1.2-1.1-1.9-1.4s-1.4-0.6-2.1-0.6
				c-0.7-0.1-1.4,0-2.1,0.3c-0.7,0.3-1.4,0.7-2,1.3s-1.1,1.3-1.3,2c-0.2,0.7-0.3,1.4-0.3,2.1c0.1,0.7,0.2,1.4,0.5,2.2
				c0.3,0.7,0.7,1.4,1.2,2L84.8,70.7z"/>
			<path id="XMLID_50_" class="st0" d="M94.4,60.8c0.2-0.3,0.5-0.7,0.8-1.1c0.3-0.4,0.5-0.8,0.6-1.2c0.1-0.3,0.1-0.7-0.1-1
				c-0.2-0.3-0.4-0.6-0.6-0.8c-0.7-0.7-1.5-1.1-2.5-1.1c-0.9,0-1.9,0.5-3,1.6c-0.5,0.5-0.9,1-1.2,1.5c-0.3,0.5-0.5,1-0.6,1.5
				c-0.1,0.5-0.1,1,0.1,1.6c0.2,0.5,0.5,1.1,0.9,1.7L87.4,65c-0.7-0.8-1.1-1.5-1.3-2.3c-0.2-0.8-0.3-1.6-0.2-2.3
				c0.1-0.8,0.4-1.5,0.8-2.2c0.4-0.7,1-1.4,1.6-2.1c0.6-0.6,1.2-1.1,1.9-1.5c0.7-0.4,1.3-0.7,2-0.8s1.4,0,2.1,0.2
				c0.7,0.3,1.4,0.7,2.1,1.4l6.6,6.6c0.5,0.5,1,0.8,1.3,0.7c0.3,0,0.7-0.5,1.1-1.3l1.1,1.1c-0.1,0.1-0.2,0.3-0.3,0.6
				c-0.1,0.3-0.3,0.5-0.5,0.7c-0.2,0.2-0.5,0.4-0.7,0.6c-0.3,0.2-0.5,0.3-0.8,0.3c-0.3,0-0.5,0-0.8-0.1c-0.2-0.1-0.5-0.2-0.7-0.4
				c-0.2-0.2-0.4-0.4-0.7-0.6c0.1,1.2-0.1,2.4-0.5,3.5c-0.4,1.1-1.1,2.1-2,3c-0.5,0.5-1.1,1-1.7,1.3c-0.6,0.4-1.3,0.6-1.9,0.6
				c-0.7,0.1-1.3,0-2-0.2s-1.3-0.6-1.9-1.2c-2.1-2.1-1.9-4.7,0.6-7.9L94.4,60.8z M97.4,59.1c-0.3,0.8-0.8,1.6-1.3,2.3
				c-0.5,0.7-1.1,1.4-1.6,2c-1,1.2-1.6,2.2-1.8,3.2s0.1,1.9,0.9,2.7c0.4,0.4,0.8,0.6,1.2,0.7c0.4,0.1,0.8,0.2,1.3,0.1
				c0.4-0.1,0.8-0.2,1.2-0.4c0.4-0.2,0.8-0.5,1.1-0.8c0.6-0.6,1-1.2,1.4-1.8c0.4-0.7,0.6-1.4,0.8-2.1c0.1-0.7,0.1-1.4-0.1-2.1
				c-0.2-0.7-0.6-1.3-1.2-1.9L97.4,59.1z"/>
			<path id="XMLID_48_" class="st0" d="M110,59.2l-1.4,1.4L96.6,48.5l1.4-1.4l1.8,1.8l0,0c-0.3-1.1-0.4-2.1-0.1-3.1
				c0.3-1,0.9-1.9,1.6-2.7c0.6-0.6,1.1-1,1.6-1.2c0.5-0.3,1-0.4,1.5-0.5c0.5-0.1,1,0,1.4,0.1c0.5,0.1,0.9,0.3,1.4,0.5
				c-0.4-1.2-0.4-2.3-0.1-3.4c0.3-1.1,0.9-2,1.8-2.9c0.8-0.8,1.6-1.3,2.4-1.6c0.8-0.2,1.5-0.2,2.2-0.1s1.4,0.5,2.1,1
				c0.7,0.5,1.3,1,1.9,1.6l7.6,7.6l-1.4,1.4l-8.4-8.4c-0.9-0.9-1.7-1.4-2.6-1.5c-0.9-0.1-1.8,0.3-2.8,1.3c-0.5,0.5-0.9,1.1-1.1,1.8
				c-0.2,0.7-0.3,1.5-0.2,2.3c0,0.4,0.2,0.7,0.3,1.1c0.2,0.4,0.4,0.7,0.6,1.1c0.2,0.4,0.5,0.7,0.8,1c0.3,0.3,0.5,0.6,0.8,0.9
				l6.5,6.5l-1.4,1.4l-8.4-8.4c-0.9-0.9-1.7-1.4-2.6-1.5c-0.9-0.1-1.8,0.3-2.8,1.3c-0.5,0.5-0.9,1.1-1.1,1.8
				c-0.2,0.7-0.3,1.5-0.2,2.3c0,0.4,0.2,0.7,0.3,1.1c0.2,0.4,0.4,0.7,0.6,1.1c0.2,0.4,0.5,0.7,0.8,1c0.3,0.3,0.5,0.6,0.8,0.9
				L110,59.2z"/>
			<path id="XMLID_45_" class="st0" d="M113.7,26.1l-2.1-2.1l1.5-1.5l2.1,2.1L113.7,26.1z M128.5,40.8l-12.1-12.1l1.4-1.4l12.1,12.1
				L128.5,40.8z"/>
			<path id="XMLID_43_" class="st0" d="M134.9,34.4l-1.4,1.4l-12.1-12.1l1.4-1.4l1.7,1.7c0-1.2,0.1-2.2,0.3-3.2
				c0.2-1,0.8-1.9,1.6-2.7c0.7-0.7,1.6-1.3,2.5-1.7c0.9-0.4,1.9-0.5,3-0.3c0.7,0.1,1.4,0.4,1.9,0.8s1,0.9,1.5,1.4l7.9,7.9l-1.4,1.4
				l-7.9-7.9c-1.1-1.1-2.1-1.7-3.2-1.7c-1-0.1-2.1,0.5-3.2,1.6c-0.4,0.4-0.8,0.9-1,1.4c-0.2,0.5-0.4,1-0.4,1.5c-0.1,0.5-0.1,1,0,1.5
				s0.2,0.9,0.4,1.4c0.2,0.5,0.5,1,0.9,1.4c0.3,0.4,0.7,0.8,1.1,1.2L134.9,34.4z"/>
			<path id="XMLID_40_" class="st0" d="M143.7,1.4l1.4-1.4L156,10.9c0.8,0.8,1.5,1.7,2.1,2.6c0.6,0.9,0.9,1.8,1.1,2.8
				c0.1,1,0,2-0.4,3.1c-0.4,1.1-1.2,2.2-2.3,3.3c-0.9,0.9-1.8,1.5-2.6,1.9c-0.9,0.4-1.7,0.6-2.4,0.7c-0.7,0.1-1.4,0-2.1-0.2
				c-0.6-0.2-1.1-0.5-1.5-0.8l1.5-1.5c0.6,0.3,1.1,0.5,1.6,0.6s1,0,1.5-0.2c0.5-0.2,0.9-0.4,1.4-0.7c0.5-0.3,0.9-0.7,1.3-1.1
				c0.9-0.9,1.5-1.9,1.8-2.8c0.2-0.9,0.3-1.8,0-2.6c-0.2-0.8-0.6-1.6-1.2-2.4c-0.6-0.8-1.2-1.5-1.9-2.2c0.3,1.2,0.2,2.4-0.2,3.5
				c-0.4,1.2-1,2.2-1.9,3c-0.9,0.9-1.9,1.5-2.9,1.9c-1,0.3-2.1,0.4-3.1,0.3c-1-0.1-2-0.5-3-1c-1-0.6-1.9-1.3-2.8-2.1
				c-0.9-0.9-1.6-1.8-2.2-2.8c-0.6-1-0.9-2-1-3c-0.1-1,0-2,0.3-3c0.4-1,1-2,2-3c0.4-0.4,0.8-0.7,1.4-1c0.5-0.3,1.1-0.5,1.6-0.7
				c0.6-0.2,1.2-0.3,1.8-0.3c0.6,0,1.2,0.1,1.8,0.3l0,0L143.7,1.4z M149.8,7.5c-0.7-0.7-1.5-1.3-2.3-1.8S145.8,5,145,4.9
				c-0.8-0.1-1.6,0-2.4,0.2c-0.8,0.2-1.5,0.7-2.1,1.4c-0.6,0.6-1,1.2-1.3,1.9c-0.3,0.7-0.4,1.5-0.4,2.2c0,0.8,0.2,1.6,0.6,2.4
				c0.4,0.8,0.9,1.6,1.7,2.3c0.7,0.8,1.5,1.4,2.3,1.9c0.8,0.5,1.6,0.8,2.5,1c0.8,0.2,1.7,0.1,2.5-0.1c0.8-0.2,1.6-0.7,2.3-1.5
				c0.6-0.6,1.1-1.3,1.3-2.1c0.2-0.8,0.3-1.6,0.2-2.4c-0.1-0.8-0.4-1.6-0.8-2.4S150.5,8.2,149.8,7.5z"/>
		</g>
	</g>
	<g id="XMLID_16_">
		<path id="XMLID_35_" class="st0" d="M49.4,168.8l-1.9,1.9l-15.3-6.5l1.8-1.8c8.4,3.9,12.8,5.9,13,6l0.1-0.1
			c-0.1-0.2-2.2-4.5-6.1-12.8l1.9-1.9L49.4,168.8z"/>
		<path id="XMLID_32_" class="st0" d="M64.7,153.5l-2.1,2.1l-7.9-1.2l-2.5,2.5l4.5,4.5l-1.6,1.6l-10.9-10.9l5.1-5.1
			c2.5-2.4,4.9-2.6,7-0.7c1.8,1.8,1.9,3.9,0.1,6.2L64.7,153.5z M47.1,151.9l3.7,3.7l3-3c1.7-1.7,1.9-3.2,0.6-4.4
			c-1.2-1.2-2.7-1-4.4,0.6L47.1,151.9z"/>
		<path id="XMLID_26_" class="st0" d="M55.8,143l-1.1-1.1l5.4-5.4l-1.1-1.1l1.4-1.4l1.1,1.1l5.5-5.5l1.1,1.1l-5.5,5.5l1,1l4.2-4.2
			l8,8l1.5-1.5l1.1,1.1l-12.9,12.9l-1.1-1.1l1.5-1.5l-8-8l4.1-4.1l-1-1L55.8,143z M60.5,142.4l1.1,1.1l7-7l-1.1-1.1L60.5,142.4z
			 M62.5,144.4l1,1l7-7l-1-1L62.5,144.4z M64.5,146.4l1,1l7-7l-1-1L64.5,146.4z M66.5,148.4l1,1l7-7l-1-1L66.5,148.4z"/>
		<path id="XMLID_17_" class="st0" d="M79.9,139.9c-0.5-0.5-1.1-0.9-1.6-1.2c0.2-0.2,0.5-0.5,0.7-0.7c0.4-0.4,0.4-0.8,0.1-1.2
			l-2.9-2.9l-0.9,1.8l-1.6-1.3c0.2-0.3,0.4-0.8,0.8-1.4c0.1-0.2,0.2-0.4,0.3-0.5l-2.5-2.5l-1.3,1.3l-1.3-1.3l1.3-1.3l-2.4-2.4
			l1.3-1.3l2.4,2.4l1-1l1.3,1.3l-1,1l2.1,2.1c0.1-0.1,0.2-0.4,0.3-0.6c0.1-0.2,0.2-0.4,0.3-0.5c0.2,0.2,0.5,0.5,0.8,0.8
			c0.9-1.8,1.4-3.4,1.4-4.8l-2.8,2.8l-1-1l3.6-3.6l-2-2c-0.3,0.3-0.7,0.7-1.4,1.4c-0.7,0.8-1.3,1.4-1.8,1.9
			c-0.4-0.2-0.8-0.5-1.3-0.8c3.3-3.5,5.9-6.2,7.7-8.2l1.3,0.8c-0.9,1-2,2.2-3.3,3.6l2.1,2.1l3.9-3.9l1,1l-3,3
			c1.3-0.1,2.9-0.6,4.8-1.5c0,0.1,0.1,0.3,0.2,0.6c0.1,0.5,0.2,0.8,0.3,1c-0.1,0-0.1,0-0.2,0.1c-0.1,0-0.2,0.1-0.2,0.1l5.3,5.3
			l-1.2,1.2l-0.6-0.6l-5.2,5.2l0.6,0.6l-1.2,1.2l-5.3-5.3l-0.3,0.5c-0.1,0-0.2,0-0.3-0.1c-0.1,0-0.3-0.1-0.6-0.1l0.1,0.1
			c-0.2,0.4-0.4,0.8-0.7,1.2l3.6,3.6c1,1,1.1,1.9,0.2,2.9c-0.1,0.1-0.3,0.3-0.5,0.6C80.2,139.5,80,139.7,79.9,139.9z M76.7,125.3
			c-0.6-0.1-1.5-0.1-2.6,0l0.2-1.5c0.3,0,0.7-0.1,1.2-0.1c0.6,0,1,0,1.3-0.1L76.7,125.3z M81.3,126.7l-1.4-1.4
			c0.1,1.4-0.2,2.9-0.7,4.4l6.5-6.5c-1.6,0.6-3.1,0.9-4.6,0.7l1.5,1.5L81.3,126.7z M81,120.9l-1.5,0.1c0-0.4,0.1-1,0.1-1.7
			c0-0.4,0.1-0.7,0.1-0.9l1.5-0.2C81.2,118.9,81.1,119.8,81,120.9z M80.7,130l1.2,1.2l2-2l-1.2-1.2L80.7,130z M82.7,132l1.1,1.1l2-2
			l-1.1-1.1L82.7,132z M85.9,124.8l-2,2l1.2,1.2l2-2L85.9,124.8z M85.9,128.8l1.1,1.1l2-2l-1.1-1.1L85.9,128.8z"/>
	</g>
</g>
</svg>
