<!-- Generator: Adobe Illustrator 19.0.0, SVG Export Plug-In  -->
<svg version="1.1"
	 xmlns="http://www.w3.org/2000/svg" xmlns:xlink="http://www.w3.org/1999/xlink" xmlns:a="http://ns.adobe.com/AdobeSVGViewerExtensions/3.0/"
	 x="0px" y="0px" width="153.5px" height="170.5px" viewBox="0 0 153.5 170.5" style="enable-background:new 0 0 153.5 170.5;"
	 xml:space="preserve">
<style type="text/css">
	.st0{fill:#FFFFFF;}
</style>
<defs>
</defs>
<g id="XMLID_15_">
	<g id="XMLID_37_">
		<g id="XMLID_39_">
			<path id="XMLID_67_" class="st0" d="M0,131.6l1.7-1.7l20,9.9l-9.9-20l1.7-1.7l11,22.6l-1.8,1.8L0,131.6z"/>
			<path id="XMLID_64_" class="st0" d="M17.7,118l-2.1-2.1l1.5-1.5l2.1,2.1L17.7,118z M32.5,132.6l-12.1-12.1l1.4-1.4l12.1,12.1
				L32.5,132.6z"/>
			<path id="XMLID_62_" class="st0" d="M34.5,123.1c1.3,0.8,2.4,1.2,3.4,1c1-0.1,2-0.7,3.1-1.8c0.5-0.5,0.9-1,1.1-1.5
				c0.2-0.5,0.4-1,0.4-1.4c0-0.5,0-0.9-0.2-1.3s-0.4-0.7-0.7-1c-0.6-0.6-1.2-0.8-1.9-0.7c-0.7,0.1-1.4,0.3-2.1,0.8
				c-0.7,0.4-1.5,0.9-2.3,1.4c-0.8,0.6-1.6,1-2.4,1.3c-0.8,0.3-1.6,0.5-2.4,0.4c-0.8-0.1-1.6-0.5-2.4-1.3c-1-1-1.5-2.2-1.4-3.6
				s0.8-2.8,2.2-4.1c1.3-1.3,2.7-2.1,4.1-2.3c1.4-0.2,2.9,0.2,4.4,1.4l-1.4,1.4c-1.1-0.8-2.1-1.1-3-0.9c-1,0.2-1.9,0.7-2.8,1.6
				s-1.4,1.8-1.5,2.6c-0.1,0.8,0.2,1.6,0.8,2.2c0.5,0.5,1.2,0.8,1.8,0.7c0.7-0.1,1.4-0.3,2.1-0.7c0.8-0.4,1.5-0.9,2.3-1.4
				c0.8-0.5,1.6-1,2.5-1.3c0.8-0.3,1.7-0.5,2.5-0.4c0.8,0.1,1.6,0.5,2.4,1.2c0.6,0.6,1,1.2,1.2,1.9c0.2,0.7,0.2,1.4,0.1,2.1
				s-0.4,1.5-0.9,2.2c-0.5,0.7-1,1.5-1.8,2.2c-0.7,0.7-1.5,1.2-2.2,1.6c-0.8,0.3-1.5,0.5-2.3,0.5c-0.8,0-1.5-0.1-2.2-0.4
				c-0.7-0.3-1.4-0.7-2-1.2L34.5,123.1z"/>
			<path id="XMLID_60_" class="st0" d="M45.3,95.7l1.4-1.4l12.1,12.1l-1.4,1.4l-1.7-1.7c0,0.4,0,0.8,0,1.3s-0.1,0.9-0.2,1.4
				c-0.1,0.5-0.3,1-0.6,1.6c-0.3,0.5-0.7,1.1-1.2,1.6c-0.8,0.8-1.6,1.4-2.4,1.7c-0.8,0.3-1.5,0.4-2.3,0.4c-0.7-0.1-1.5-0.3-2.1-0.7
				c-0.7-0.4-1.3-0.9-2-1.5l-8-8l1.4-1.4l7.9,7.9c1,1,2.1,1.6,3.1,1.7c1,0.1,2.1-0.4,3.2-1.6c0.6-0.6,1-1.2,1.2-1.9s0.3-1.4,0.2-2.1
				c-0.1-0.7-0.3-1.4-0.7-2.2c-0.4-0.7-0.9-1.4-1.6-2.1L45.3,95.7z"/>
			<path id="XMLID_57_" class="st0" d="M60.6,90.4c0.2-0.3,0.5-0.7,0.8-1.1c0.3-0.4,0.5-0.8,0.6-1.2s0.1-0.7-0.1-1s-0.4-0.6-0.6-0.8
				c-0.7-0.7-1.5-1.1-2.5-1.1c-0.9,0-1.9,0.5-3,1.6c-0.5,0.5-0.9,1-1.2,1.5s-0.5,1-0.6,1.5s-0.1,1,0.1,1.6c0.2,0.5,0.5,1.1,0.9,1.7
				l-1.4,1.4c-0.7-0.8-1.1-1.5-1.3-2.3c-0.2-0.8-0.3-1.6-0.2-2.3c0.1-0.8,0.4-1.5,0.8-2.2c0.4-0.7,1-1.4,1.6-2.1
				c0.6-0.6,1.2-1.1,1.9-1.5c0.7-0.4,1.3-0.7,2-0.8c0.7-0.1,1.4,0,2.1,0.2s1.4,0.7,2.1,1.4l6.6,6.6c0.5,0.5,1,0.8,1.3,0.7
				c0.3,0,0.7-0.5,1.1-1.3l1.1,1.1c-0.1,0.1-0.2,0.3-0.3,0.6c-0.1,0.3-0.3,0.5-0.5,0.7c-0.2,0.2-0.5,0.4-0.7,0.6
				c-0.3,0.2-0.5,0.3-0.8,0.3c-0.3,0-0.5,0-0.8-0.1c-0.2-0.1-0.5-0.2-0.7-0.4c-0.2-0.2-0.4-0.4-0.7-0.6c0.1,1.2-0.1,2.4-0.5,3.5
				c-0.4,1.1-1.1,2.1-2,3c-0.5,0.5-1.1,1-1.7,1.3c-0.6,0.3-1.3,0.6-1.9,0.6c-0.7,0.1-1.3,0-2-0.2c-0.6-0.2-1.3-0.6-1.9-1.2
				c-2.1-2.1-1.9-4.7,0.6-7.9L60.6,90.4z M63.7,88.8c-0.3,0.8-0.8,1.6-1.3,2.3c-0.5,0.7-1.1,1.4-1.6,2c-1,1.2-1.6,2.2-1.8,3.2
				c-0.2,1,0.1,1.9,0.9,2.7c0.4,0.4,0.8,0.6,1.2,0.7c0.4,0.1,0.8,0.2,1.3,0.1c0.4-0.1,0.8-0.2,1.2-0.4c0.4-0.2,0.8-0.5,1.1-0.8
				c0.6-0.6,1-1.2,1.4-1.8c0.4-0.7,0.6-1.4,0.8-2.1c0.1-0.7,0.1-1.4-0.1-2.1c-0.2-0.7-0.6-1.3-1.2-1.9L63.7,88.8z"/>
			<path id="XMLID_55_" class="st0" d="M75.3,89.8L58.5,73l1.4-1.4l16.8,16.8L75.3,89.8z"/>
			<path id="XMLID_53_" class="st0" d="M87,78.2L70.2,61.4l11.2-11.2l1.4,1.4l-9.6,9.6l6.1,6.1l8.7-8.7l1.4,1.4l-8.7,8.7l6.7,6.7
				l9.8-9.8l1.4,1.4L87,78.2z"/>
			<path id="XMLID_51_" class="st0" d="M88.9,54.4l-1.2-1.2l1.8-1.8l-1.9-1.9c-1-1-1.5-1.9-1.7-2.9c-0.2-0.9,0.2-1.9,1.1-2.8
				c0.2-0.2,0.4-0.4,0.6-0.6c0.2-0.2,0.4-0.3,0.6-0.5l1.3,1.3c-0.4,0.2-0.7,0.5-1,0.7c-0.4,0.4-0.6,0.7-0.6,1s0,0.7,0.1,1
				c0.1,0.3,0.3,0.6,0.6,0.9c0.2,0.3,0.5,0.6,0.8,0.9l1.5,1.5l2.3-2.3l1.2,1.2l-2.3,2.3L103,62.1l-1.4,1.4L90.7,52.6L88.9,54.4z"/>
			<path id="XMLID_49_" class="st0" d="M95.4,47.9l-1.2-1.2L96,45L94.1,43c-1-1-1.5-1.9-1.7-2.9c-0.2-0.9,0.2-1.9,1.1-2.8
				c0.2-0.2,0.4-0.4,0.6-0.6c0.2-0.2,0.4-0.3,0.6-0.5l1.3,1.3c-0.4,0.2-0.7,0.5-1,0.7c-0.4,0.4-0.6,0.7-0.6,1c-0.1,0.3,0,0.7,0.1,1
				c0.1,0.3,0.3,0.6,0.6,0.9c0.2,0.3,0.5,0.6,0.8,0.9l1.5,1.5l2.3-2.3l1.2,1.2l-2.3,2.3l10.9,10.9l-1.4,1.4L97.2,46.1L95.4,47.9z"/>
			<path id="XMLID_46_" class="st0" d="M109.2,44.6c0.7,0.7,1.4,1.2,2.1,1.6c0.8,0.4,1.5,0.7,2.3,0.8c0.8,0.1,1.5,0,2.3-0.2
				c0.8-0.3,1.5-0.7,2.2-1.4c0.9-0.9,1.5-1.9,1.6-3.1c0.2-1.1-0.1-2.3-0.7-3.4l1.6-1.6c0.4,0.7,0.7,1.5,0.9,2.3
				c0.2,0.8,0.3,1.5,0.2,2.3c-0.1,0.8-0.3,1.6-0.6,2.3s-0.9,1.5-1.7,2.3c-1,1-2,1.6-3,2c-1,0.4-2,0.5-3.1,0.4c-1-0.1-2-0.5-3-1
				c-1-0.6-1.9-1.3-2.8-2.2s-1.6-1.8-2.1-2.9c-0.5-1-0.8-2.1-0.9-3.1c-0.1-1.1,0-2.1,0.4-3.1c0.3-1,1-2,1.8-2.8
				c1.7-1.7,3.5-2.4,5.6-2.2c2.1,0.2,4.2,1.4,6.4,3.6L109.2,44.6z M115.9,35.5c-0.6-0.6-1.2-1.1-1.9-1.4c-0.7-0.4-1.4-0.6-2.1-0.6
				c-0.7-0.1-1.4,0-2.1,0.3c-0.7,0.3-1.4,0.7-2,1.3s-1.1,1.3-1.3,2c-0.2,0.7-0.3,1.4-0.3,2.1c0.1,0.7,0.2,1.4,0.5,2.2
				c0.3,0.7,0.7,1.4,1.2,2L115.9,35.5z"/>
			<path id="XMLID_44_" class="st0" d="M127.3,21.3c-1.2-0.7-2.3-0.9-3.4-0.8c-1.1,0.1-2.1,0.6-3.1,1.6c-0.7,0.7-1.2,1.5-1.4,2.3
				c-0.2,0.8-0.2,1.6-0.1,2.4c0.2,0.8,0.5,1.6,0.9,2.4c0.5,0.8,1,1.5,1.6,2.1c0.6,0.6,1.3,1.2,2.1,1.6c0.8,0.5,1.5,0.8,2.3,0.9
				c0.8,0.2,1.6,0.1,2.4-0.1c0.8-0.2,1.6-0.7,2.3-1.4c1-1,1.6-2.2,1.6-3.4c0.1-1.2-0.3-2.4-1.2-3.6l1.5-1.5c0.5,0.8,1,1.6,1.2,2.4
				s0.4,1.6,0.4,2.5c0,0.8-0.2,1.6-0.6,2.5c-0.4,0.8-0.9,1.6-1.7,2.4c-1,1-2,1.6-3,2s-2,0.5-3.1,0.4c-1-0.1-2-0.5-3-1
				c-1-0.6-1.9-1.3-2.8-2.2c-0.8-0.8-1.5-1.8-2.1-2.8c-0.5-1-0.9-2-1-3.1c-0.1-1.1,0-2.1,0.3-3.2c0.3-1,1-2,1.9-2.9
				c1.4-1.4,2.9-2.2,4.4-2.4c1.5-0.2,3.1,0.3,4.7,1.5L127.3,21.3z"/>
			<path id="XMLID_42_" class="st0" d="M144.3,21c-0.1,0.2-0.3,0.5-0.5,0.8s-0.5,0.7-0.8,1.1c-0.7,0.7-1.4,1.1-2.1,1.1
				c-0.7,0-1.5-0.4-2.4-1.3l-8.8-8.8l-1.7,1.7l-1.2-1.2l1.7-1.7L125,9.3l1.4-1.4l3.4,3.4l2.3-2.3l1.2,1.2l-2.3,2.3l8.3,8.3
				c0.3,0.3,0.6,0.5,0.8,0.7c0.2,0.2,0.5,0.3,0.7,0.4c0.2,0.1,0.4,0,0.7-0.1c0.2-0.1,0.5-0.3,0.8-0.6c0.2-0.2,0.4-0.4,0.5-0.6
				c0.2-0.2,0.3-0.5,0.5-0.7L144.3,21z"/>
			<path id="XMLID_40_" class="st0" d="M143.5,14.1c1.3,0.8,2.4,1.2,3.4,1c1-0.1,2-0.7,3.1-1.8c0.5-0.5,0.9-1,1.1-1.5
				c0.2-0.5,0.4-1,0.4-1.4c0-0.5,0-0.9-0.2-1.3c-0.1-0.4-0.4-0.7-0.7-1c-0.6-0.6-1.2-0.8-1.9-0.7c-0.7,0.1-1.4,0.3-2.1,0.8
				c-0.7,0.4-1.5,0.9-2.3,1.4c-0.8,0.6-1.6,1-2.4,1.3c-0.8,0.3-1.6,0.5-2.4,0.4c-0.8-0.1-1.6-0.5-2.4-1.3c-1-1-1.5-2.2-1.4-3.6
				c0.1-1.4,0.8-2.8,2.2-4.1c1.3-1.3,2.7-2.1,4.1-2.3c1.4-0.2,2.9,0.2,4.4,1.4L145,2.9c-1.1-0.8-2.1-1.1-3-0.9
				c-1,0.2-1.9,0.7-2.8,1.6s-1.4,1.8-1.5,2.6c-0.1,0.8,0.2,1.6,0.8,2.2c0.5,0.5,1.2,0.8,1.8,0.7c0.7-0.1,1.4-0.3,2.1-0.7
				c0.8-0.4,1.5-0.9,2.3-1.4c0.8-0.5,1.6-1,2.5-1.3c0.8-0.3,1.7-0.5,2.5-0.4c0.8,0.1,1.6,0.5,2.4,1.2c0.6,0.6,1,1.2,1.2,1.9
				c0.2,0.7,0.2,1.4,0.1,2.1s-0.4,1.5-0.9,2.2s-1,1.5-1.8,2.2s-1.5,1.2-2.2,1.6c-0.8,0.3-1.5,0.5-2.3,0.5c-0.8,0-1.5-0.1-2.2-0.4
				c-0.7-0.3-1.4-0.7-2-1.2L143.5,14.1z"/>
		</g>
	</g>
	<g id="XMLID_16_">
		<path id="XMLID_33_" class="st0" d="M45.4,170.5c-0.2,0-0.7,0-1.2,0.1c-0.4,0-0.7,0-1,0c-0.4-2.6-2.1-5.2-4.9-7.9l-4.3-4.3
			c3.5-3.7,6.7-7.4,9.6-10.9l2,0.8c-2.7,3.2-5.7,6.6-8.9,10l1.5,1.5l9.9-9.9l1.3,1.3l-9.9,9.9l0.2,0.2c1.8,1.8,3.1,3.4,3.9,4.6
			C44.3,167.1,44.9,168.6,45.4,170.5z M48,167.7l-5.7-5.7l8-8l5.7,5.7l-1.4,1.4l-0.7-0.7l-5.2,5.2l0.7,0.7L48,167.7z M44.9,161.8
			l2.6,2.6l5.2-5.2l-2.6-2.6L44.9,161.8z"/>
		<path id="XMLID_24_" class="st0" d="M48,147.7l-1.2-1.2l0.9-0.9l-1.3-1.3l1.3-1.3l1.3,1.3l2.3-2.3l-1.4-1.4l1.3-1.3l1.4,1.4
			l0.9-0.9l1.2,1.2l-0.9,0.9l5.8,5.8l1-1l1.2,1.2l-7,7l-1.2-1.2l1-1l-5.8-5.8L48,147.7z M50.2,145.5l1.2,1.2l2.3-2.3l-1.2-1.2
			L50.2,145.5z M52.4,147.8l1.2,1.2l2.3-2.3l-1.2-1.2L52.4,147.8z M62.8,152.1c-0.4,0-1-0.1-1.8-0.1c-0.7,0-1.2-0.1-1.6-0.1l0.2-1.7
			c1.2,0,2.3,0,3.2-0.1c-0.2-1.8-1.6-4-4.3-6.5l-5.4-5.4l4.8-4.8l10.7,10.7c0.9,0.9,0.9,1.8,0.1,2.7c-0.1,0.1-0.4,0.4-0.8,0.8
			c-0.4,0.4-0.6,0.7-0.8,0.9c-0.1-0.1-0.4-0.2-0.9-0.5c-0.4-0.2-0.6-0.4-0.8-0.5c0.5-0.4,0.9-0.8,1.3-1.2c0.5-0.5,0.6-0.9,0.1-1.3
			l-2.2-2.2l-2.2,2.2c1.5,1.8,2.4,3.7,2.7,5.9c-0.4,0-0.9,0.1-1.6,0.2c-0.2,0-0.4,0-0.5,0.1c0-0.1,0-0.2,0-0.3
			c0-0.1-0.1-0.2-0.1-0.3L62.8,152.1z M54.7,150.1l1.2,1.2l2.3-2.3l-1.2-1.2L54.7,150.1z M55.8,138.2l2.1,2.1l2.1-2.1l-2.1-2.1
			L55.8,138.2z M58.9,156.9c-1,0-1.6,0-1.9,0.1c0.1-1.7,0.1-3-0.1-4.1l1.9-0.4C58.9,154.1,58.9,155.6,58.9,156.9z M60,142.4
			c0.4,0.4,0.8,0.9,1.2,1.3l2.2-2.2l-2.1-2.1l-2.1,2.1L60,142.4z"/>
		<path id="XMLID_20_" class="st0" d="M64.6,137.4l-1.2-1.2l3.5-3.5l-1.5-1.5l-1.7,1.7c0.2,0.5,0.4,1.1,0.6,1.7
			c-0.5,0.2-1,0.4-1.5,0.7c-0.6-1.7-1.3-3.2-2.2-4.5l1.4-1c0.3,0.5,0.6,1,0.9,1.5l1.3-1.3l-1.8-1.8l1.3-1.3l1.8,1.8l2.6-2.6l1.2,1.2
			l-2.6,2.6l1.5,1.5l3.1-3.1l1.2,1.2l-3.1,3.1l1.4,1.4l2.8-2.8l3.2,3.2c0.9,0.9,0.9,1.7,0.2,2.5c-0.1,0.1-0.2,0.2-0.4,0.4
			c-0.2,0.3-0.4,0.5-0.6,0.7c-0.4-0.3-0.9-0.5-1.3-0.8c0.2-0.2,0.5-0.5,0.7-0.7c0.4-0.3,0.4-0.7-0.1-1l-1.9-1.9l-1.5,1.5l4.4,4.4
			l-1.3,1.3l-4.4-4.4l-1.4,1.4l3.5,3.5l-1.3,1.3l-4.7-4.7l2.7-2.7l-1.4-1.4L64.6,137.4z M76.7,132.5l-8-8l1.2-1.2l8,8L76.7,132.5z
			 M80.2,135.2c-0.5-0.4-1.1-0.7-1.6-1.1c0.6-0.6,1.1-1.1,1.5-1.5c0.6-0.6,0.7-1.1,0.1-1.6l-10.4-10.4l1.3-1.3L81.8,130
			c1.2,1.2,1.3,2.3,0.2,3.4C81.4,134,80.8,134.6,80.2,135.2z"/>
		<path id="XMLID_17_" class="st0" d="M80.6,125.4c-0.4-0.2-1-0.6-1.7-1.1c-0.2-0.1-0.3-0.2-0.4-0.2c-0.6-3-1.8-6-3.4-8.9l1.8-1
			c0.6,1.2,1.2,2.5,1.8,3.8l9.6,9.6l-1.4,1.4l-6.9-6.9C80.2,123.2,80.4,124.3,80.6,125.4z M83.3,119.7c-0.6,0-1.3,0-2.1-0.1
			c-0.3-2.5-1.2-5.1-2.7-7.9l1.8-1.2c0.1,0.4,0.4,0.9,0.7,1.5c0.2,0.4,0.3,0.7,0.4,0.9l5.9-5.9l1.3,1.3l-4.4,4.4l2,2l3.7-3.7
			l1.3,1.3l-3.7,3.7l2,2l4-4l1.3,1.3l-4,4l2.8,2.8l-1.4,1.4l-9.4-9.4l-0.7,0.7C82.7,116.5,83.1,118.1,83.3,119.7z"/>
	</g>
</g>
</svg>
