<!-- Generator: Adobe Illustrator 19.0.0, SVG Export Plug-In  -->
<svg version="1.1"
	 xmlns="http://www.w3.org/2000/svg" xmlns:xlink="http://www.w3.org/1999/xlink" xmlns:a="http://ns.adobe.com/AdobeSVGViewerExtensions/3.0/"
	 x="0px" y="0px" width="308.1px" height="43.4px" viewBox="0 0 308.1 43.4" style="enable-background:new 0 0 308.1 43.4;"
	 xml:space="preserve">
<style type="text/css">
	.st0{fill:#FFFFFF;}
</style>
<defs>
</defs>
<g id="XMLID_15_">
	<g id="XMLID_17_">
		<path id="XMLID_33_" class="st0" d="M0,21.8c0-3,0.4-5.8,1.2-8.5c0.8-2.6,2-4.9,3.6-6.9c1.6-2,3.6-3.5,6-4.7C13.2,0.6,15.9,0,19,0
			c3.2,0,6,0.6,8.5,1.7c2.4,1.1,4.5,2.7,6.1,4.6c1.6,2,2.8,4.3,3.7,6.9c0.8,2.7,1.2,5.5,1.2,8.5c0,3-0.4,5.8-1.2,8.4
			c-0.8,2.6-2,4.9-3.6,6.9c-1.6,2-3.6,3.5-6,4.7c-2.4,1.1-5.2,1.7-8.4,1.7c-3.2,0-6-0.6-8.4-1.7c-2.4-1.1-4.4-2.7-6-4.7
			c-1.6-2-2.8-4.3-3.6-6.9C0.4,27.6,0,24.8,0,21.8z M19.3,40.1c2.7,0,5-0.5,6.9-1.5c1.9-1,3.5-2.4,4.8-4c1.2-1.7,2.2-3.6,2.8-5.8
			c0.6-2.2,0.9-4.5,0.9-6.9c0-2.9-0.4-5.4-1.1-7.7c-0.7-2.3-1.7-4.2-3.1-5.8c-1.3-1.6-3-2.8-4.9-3.7c-1.9-0.8-4.1-1.3-6.4-1.3
			c-2.6,0-4.9,0.5-6.8,1.5c-1.9,1-3.5,2.4-4.8,4.1c-1.2,1.7-2.2,3.7-2.8,5.9c-0.6,2.2-0.9,4.5-0.9,6.9c0,2.4,0.3,4.8,0.9,7
			c0.6,2.2,1.5,4.2,2.8,5.8c1.2,1.7,2.8,3,4.8,4C14.2,39.6,16.5,40.1,19.3,40.1z"/>
		<path id="XMLID_31_" class="st0" d="M46.3,1.1h3.9v24.6c0,5.1,1,8.8,2.9,11.1c1.9,2.3,5,3.4,9.2,3.4c2.2,0,4.1-0.3,5.6-0.9
			c1.5-0.6,2.8-1.5,3.8-2.7c1-1.2,1.6-2.7,2.1-4.5c0.4-1.8,0.6-3.9,0.6-6.4V1.1h3.9v25.7c0,5.4-1.3,9.5-4,12.4
			c-2.7,2.8-6.7,4.3-12,4.3c-5.4,0-9.4-1.5-12-4.4c-2.6-2.9-4-7-4-12.3V1.1z"/>
		<path id="XMLID_28_" class="st0" d="M91.4,23.6v18.7l-3.9-0.1V1.1h16.2c4.5,0,8,0.9,10.4,2.6s3.6,4.5,3.6,8.3
			c0,2.6-0.5,4.7-1.6,6.2c-1.1,1.5-2.8,2.8-5.1,3.9c1.2,0.4,2.2,1,2.9,1.8c0.7,0.8,1.2,1.7,1.5,2.8s0.6,2.1,0.7,3.3
			c0.1,1.1,0.2,2.3,0.2,3.3c0,1.6,0.1,2.9,0.2,3.9c0.1,1,0.2,1.9,0.3,2.5c0.1,0.6,0.3,1.2,0.5,1.5c0.2,0.4,0.4,0.6,0.7,0.8v0.3
			l-4.3,0.1c-0.4-0.7-0.7-1.6-0.9-2.9c-0.2-1.2-0.3-2.5-0.4-3.8c-0.1-1.3-0.2-2.6-0.2-3.9c-0.1-1.3-0.2-2.3-0.3-3.1
			c-0.2-1.1-0.6-2-1.1-2.7c-0.5-0.7-1.1-1.2-1.9-1.5c-0.7-0.3-1.5-0.6-2.4-0.7c-0.9-0.1-1.8-0.2-2.8-0.2H91.4z M103.6,20.3
			c1.5,0,2.8-0.2,4-0.5c1.2-0.3,2.3-0.8,3.2-1.5c0.9-0.7,1.6-1.5,2.2-2.6c0.5-1,0.8-2.3,0.8-3.7c0-1.5-0.3-2.8-0.8-3.8
			c-0.6-1-1.3-1.8-2.2-2.3c-0.9-0.6-2-1-3.2-1.2c-1.2-0.2-2.5-0.3-3.8-0.3H91.4v15.9H103.6z"/>
		<path id="XMLID_26_" class="st0" d="M174.1,36.9h0.1l9-35.8h4l-10.8,41.3h-4.3l-9.6-36.5h-0.1l-9.6,36.5h-4.3L137.9,1.1h3.9
			l8.9,35.8h0.1l9.6-35.8h4.4L174.1,36.9z"/>
		<path id="XMLID_23_" class="st0" d="M191.1,21.8c0-3,0.4-5.8,1.2-8.5c0.8-2.6,2-4.9,3.6-6.9c1.6-2,3.6-3.5,6-4.7
			c2.4-1.1,5.1-1.7,8.2-1.7c3.2,0,6,0.6,8.5,1.7c2.4,1.1,4.5,2.7,6.1,4.6c1.6,2,2.8,4.3,3.7,6.9c0.8,2.7,1.2,5.5,1.2,8.5
			c0,3-0.4,5.8-1.2,8.4c-0.8,2.6-2,4.9-3.6,6.9c-1.6,2-3.6,3.5-6,4.7c-2.4,1.1-5.2,1.7-8.4,1.7c-3.2,0-6-0.6-8.4-1.7
			c-2.4-1.1-4.4-2.7-6-4.7c-1.6-2-2.8-4.3-3.6-6.9C191.5,27.6,191.1,24.8,191.1,21.8z M210.3,40.1c2.7,0,5-0.5,6.9-1.5
			c1.9-1,3.5-2.4,4.8-4c1.2-1.7,2.2-3.6,2.8-5.8c0.6-2.2,0.9-4.5,0.9-6.9c0-2.9-0.4-5.4-1.1-7.7c-0.7-2.3-1.7-4.2-3.1-5.8
			c-1.3-1.6-3-2.8-4.9-3.7c-1.9-0.8-4.1-1.3-6.4-1.3c-2.6,0-4.9,0.5-6.8,1.5c-1.9,1-3.5,2.4-4.8,4.1c-1.2,1.7-2.2,3.7-2.8,5.9
			c-0.6,2.2-0.9,4.5-0.9,6.9c0,2.4,0.3,4.8,0.9,7c0.6,2.2,1.5,4.2,2.8,5.8c1.2,1.7,2.8,3,4.8,4C205.3,39.6,207.6,40.1,210.3,40.1z"
			/>
		<path id="XMLID_20_" class="st0" d="M241.1,23.6v18.7l-3.9-0.1V1.1h16.2c4.5,0,8,0.9,10.4,2.6s3.6,4.5,3.6,8.3
			c0,2.6-0.5,4.7-1.6,6.2c-1.1,1.5-2.8,2.8-5.1,3.9c1.2,0.4,2.2,1,2.9,1.8c0.7,0.8,1.2,1.7,1.5,2.8s0.6,2.1,0.7,3.3
			c0.1,1.1,0.2,2.3,0.2,3.3c0,1.6,0.1,2.9,0.2,3.9c0.1,1,0.2,1.9,0.3,2.5c0.1,0.6,0.3,1.2,0.5,1.5c0.2,0.4,0.4,0.6,0.7,0.8v0.3
			l-4.3,0.1c-0.4-0.7-0.7-1.6-0.9-2.9c-0.2-1.2-0.3-2.5-0.4-3.8c-0.1-1.3-0.2-2.6-0.2-3.9c-0.1-1.3-0.2-2.3-0.3-3.1
			c-0.2-1.1-0.6-2-1.1-2.7c-0.5-0.7-1.1-1.2-1.9-1.5c-0.7-0.3-1.5-0.6-2.4-0.7c-0.9-0.1-1.8-0.2-2.8-0.2H241.1z M253.3,20.3
			c1.5,0,2.8-0.2,4-0.5c1.2-0.3,2.3-0.8,3.2-1.5c0.9-0.7,1.6-1.5,2.2-2.6c0.5-1,0.8-2.3,0.8-3.7c0-1.5-0.3-2.8-0.8-3.8
			c-0.6-1-1.3-1.8-2.2-2.3c-0.9-0.6-2-1-3.2-1.2c-1.2-0.2-2.5-0.3-3.8-0.3h-12.4v15.9H253.3z"/>
		<path id="XMLID_18_" class="st0" d="M275.7,42.4V1.1h3.9v21.4l21.1-21.4h4.4l-16.3,16.4l19.1,24.8h-4.8l-17.2-22.4l-6.5,6.5v15.9
			H275.7z"/>
	</g>
</g>
</svg>
